<svg id="Layer_1" data-name="Layer 1" xmlns="http://www.w3.org/2000/svg" xmlns:xlink="http://www.w3.org/1999/xlink" viewBox="0 0 543.13 500.05" width="406" height="306" class="illustration styles_illustrationTablet__1DWOa"><defs><linearGradient id="linear-gradient" x1="238.92" y1="496.49" x2="378.43" y2="88.35" gradientUnits="userSpaceOnUse"><stop offset="0" stop-color="#010101" stop-opacity="0"></stop><stop offset="0.95" stop-color="#010101"></stop></linearGradient><linearGradient id="linear-gradient-2" x1="448.5" y1="440.93" x2="443.5" y2="333.33" xlink:href="#linear-gradient"></linearGradient><linearGradient id="linear-gradient-3" x1="175.17" y1="185.55" x2="622.9" y2="286.62" xlink:href="#linear-gradient"></linearGradient><linearGradient id="linear-gradient-4" x1="238.15" y1="346.39" x2="363.82" y2="296.81" xlink:href="#linear-gradient"></linearGradient><linearGradient id="linear-gradient-5" x1="185.95" y1="-50.36" x2="522.61" y2="659.86" gradientUnits="userSpaceOnUse"><stop offset="0" stop-color="#fff" stop-opacity="0"></stop><stop offset="0.95" stop-color="#fff"></stop></linearGradient><linearGradient id="linear-gradient-6" x1="238.29" y1="180.52" x2="179.87" y2="278.14" xlink:href="#linear-gradient"></linearGradient><linearGradient id="linear-gradient-7" x1="249.31" y1="-88.74" x2="639.75" y2="734.92" xlink:href="#linear-gradient-5"></linearGradient><linearGradient id="linear-gradient-8" x1="448.5" y1="417.88" x2="443.5" y2="310.27" xlink:href="#linear-gradient"></linearGradient><linearGradient id="linear-gradient-9" x1="448.5" y1="392.51" x2="443.5" y2="284.9" xlink:href="#linear-gradient"></linearGradient><linearGradient id="linear-gradient-10" x1="448.5" y1="369.45" x2="443.5" y2="261.84" xlink:href="#linear-gradient"></linearGradient><linearGradient id="linear-gradient-11" x1="427.85" y1="225.69" x2="482.04" y2="524.3" xlink:href="#linear-gradient-5"></linearGradient><linearGradient id="linear-gradient-12" x1="460.54" y1="287.02" x2="438.06" y2="405.2" xlink:href="#linear-gradient-5"></linearGradient></defs><title>Bitcoin 2</title><path d="M228.34,505.91c50.23.42,101.62.67,149.07-15.81,19.95-6.92,39.1-16.77,60-20.09,19.4-3.09,39.28-.36,58.83-2.3,51.78-5.14,97.9-46.48,108.65-97.39,10.4-49.26-9.81-99.84-8.21-150.17,1.66-52.55,25.85-110.35-3.12-154.22C578.73,43.54,553.11,31,527.94,21.68c-30.17-11.15-62.61-19.2-94.38-14.17-30.32,4.8-57.65,21.1-87.5,28.23-50.76,12.13-104.84-3-155.9,7.81C135,55.22,88,99,72.06,153.09c-21.68,73.8,12.26,152.84,4.4,229.36-2,19.09-6.52,38.47-2.51,57.24C86.09,496.46,183.43,505.53,228.34,505.91Z" transform="translate(-64.71 -5.98)" fill="#68e1fd" opacity="0.24" style="isolation: isolate;"></path><path d="M369.06,426.16a1810.59,1810.59,0,0,0-278.19,11c-1.36,5.05,2.31,10.36,7,12.65s10.14,2.32,15.37,2.29L243,451.39c40.71-.22,81.43-.44,122.07-2.85,21.34-1.26,43.1-3.24,62.64-11.9-3.91-8.52-15.21-9.92-24.58-10.13l-78.59-1.75" transform="translate(-64.71 -5.98)" fill="url(#linear-gradient)"></path><path d="M566.85,414c0,14.33-53.68,26-119.9,26s-119.9-11.63-119.9-26c0-1.84-.28-8.76.13-16.26,0-.9.08-1.76.12-2.66,2.13-7.49,19-14.13,44.39-18.55C393.39,381,420.21,388.1,447,388.1c26.29,0,52.21-7,73.42-11.88,26.29,4.43,43.86,11.14,46.19,18.76,0,1,.08,2,.13,3v.08C567.05,405.63,566.85,412.34,566.85,414Z" transform="translate(-64.71 -5.98)" fill="#fdcd01"></path><path d="M566.85,414c0,14.33-53.68,26-119.9,26s-119.9-11.63-119.9-26c0-1.84-.28-8.76.13-16.26,0-.9.08-1.76.12-2.66,2.13-7.49,19-14.13,44.39-18.55C393.39,381,420.21,388.1,447,388.1c26.29,0,52.21-7,73.42-11.88,26.29,4.43,43.86,11.14,46.19,18.76,0,1,.08,2,.13,3v.08C567.05,405.63,566.85,412.34,566.85,414Z" transform="translate(-64.71 -5.98)" fill="url(#linear-gradient-2)"></path><path d="M566.85,396.74a4.8,4.8,0,0,1-.16,1.27v.08c-3.2,13.68-55.61,24.57-119.74,24.57-64.66,0-117.36-11.06-119.77-24.9a3.91,3.91,0,0,1-.13-1,5.83,5.83,0,0,1,.25-1.64c2.13-7.49,19-14.13,44.39-18.55,20.55-3.6,46.72-5.77,75.26-5.77,27.68,0,53.15,2.05,73.42,5.44,26.29,4.43,43.86,11.14,46.19,18.76A5.16,5.16,0,0,1,566.85,396.74Z" transform="translate(-64.71 -5.98)" fill="#fdcd01"></path><path d="M301.18,118.18a39.56,39.56,0,0,1,2.05,9.21,13.31,13.31,0,0,1-2.39,9c-2.53,3.27-7,4.64-11.13,4a19,19,0,0,1-10.63-5.95c-5.71-6-8.39-15.32-4.79-22.74a12.64,12.64,0,0,1,3-4.08,14.5,14.5,0,0,1,6.66-3c3.92-.8,10.43-.85,13.51,2.29,1,1,1.09,2.22,1.41,3.55C299.52,113.06,300.39,115.61,301.18,118.18Z" transform="translate(-64.71 -5.98)" fill="none"></path><path d="M219.35,133.87s-17.7,19.84-18.74,22.28c-10,23.44,12.86,93.54,13.7,98.57s28.54,3.36,40.29,0a129.58,129.58,0,0,0,22.66-9.23s-13.52-107.55-16-109.23-20.77-3.14-20.77-3.14Z" transform="translate(-64.71 -5.98)" fill="#68e1fd"></path><path d="M264.88,238.52c-3.9-3.83-10.19-3.1-15.64-2.67-8.78.69-17.6-.11-26.36-.92-4.5-.41-9.27-.92-12.85-3.68-4.74-3.65-6.06-10.13-7.06-16l-3-17.64c-.35-2.11-.7-4.34.1-6.31a71.4,71.4,0,0,0,54.64,32.83c2.14-3.53.8-8-.08-12-1.57-7.22-1.45-14.69-.86-22.06.37-4.62.95-9.31,2.81-13.55s5.17-8.06,9.57-9.53c1.94,8.63,3.89,17.29,7,25.58,3,8.13,7.09,15.88,9.24,24.28a17.7,17.7,0,0,1,.63,7.4c-.46,2.58-1.86,4.87-2.9,7.28a27.55,27.55,0,0,0-2.11,7.87c-.34,3.06-1,7.81-5.12,7.24C269,246,267.29,240.9,264.88,238.52Z" transform="translate(-64.71 -5.98)" fill="url(#linear-gradient-3)"></path><path d="M286.87,419.23s3.55,13.39,5.21,14.37,12.79.09,13.42-4c.15-.94-1.29-8.65-1.29-8.65l-.59-3.6Z" transform="translate(-64.71 -5.98)" fill="#c58067"></path><path d="M197.72,412.77s-6.47,18.21-5.83,20,8.57-.83,12.71-.57,5.74-6.15,5.74-6.15l1.47-4.07Z" transform="translate(-64.71 -5.98)" fill="#c58067"></path><path d="M217.67,123.8s2.52,10.91,1.68,15.11,5.87,15.94,14.27,15.94S242,140.59,242,138.91s-2.52-2.52-1.68-6.71S218.51,118.77,217.67,123.8Z" transform="translate(-64.71 -5.98)" fill="#c58067"></path><path d="M240.33,132.2c-.65,3.24.7,4.48,1.35,5.64a10.5,10.5,0,0,1-6.91,3.06c-5,0-12.59-4.19-16-11.75-.06-.13-.11-.28-.17-.42-.48-2.77-1-4.93-1-4.93C218.51,118.77,241.17,128,240.33,132.2Z" transform="translate(-64.71 -5.98)" fill="#b6765e"></path><path d="M219.51,137.34s6.76,15.84,12.53,17.51c0,0,1.58.84-2.62,3.36s-15.95-10.07-14.27-19.3a6.93,6.93,0,0,1,4.18-5.36Z" transform="translate(-64.71 -5.98)" fill="#fff"></path><path d="M240.33,133.87s1.86,11.65-2.85,19.67c0,0,2,3,3.69,3s5.87-10.07,4.19-17.62C244.38,134.5,241.17,132.67,240.33,133.87Z" transform="translate(-64.71 -5.98)" fill="#fff"></path><path d="M214.31,254.72l9.18,73-28.55,94.4s5.25,2.9,16.16,2.06l38.75-93.34.55-59.33L263,322.7l24.13,99.8s12.27,2.7,19.5-2.5l-15.94-97.3-13.42-77.21Z" transform="translate(-64.71 -5.98)" fill="#606161"></path><path d="M214.31,254.72l9.18,73-28.55,94.4s5.25,2.9,16.16,2.06l38.75-93.34.55-59.33L263,322.7l24.13,99.8s12.27,2.7,19.5-2.5l-15.94-97.3-13.42-77.21Z" transform="translate(-64.71 -5.98)" fill="url(#linear-gradient-4)"></path><path d="M245.36,99.47s1.68,21.82,0,27.69-6.71,10.91-11.74,10.91-12.59-4.2-16-11.75-5-26-4.2-28.53,5.91-10.45,19.31-9.23C242,89.39,245.36,96.11,245.36,99.47Z" transform="translate(-64.71 -5.98)" fill="#c58067"></path><path d="M214.49,110.22c.77,1.72,3.44,1.8,4.79.49s1.61-3.4,1.37-5.27-.87-3.68-1-5.56a1.24,1.24,0,0,1,1.51-1.57c2.53.08,5.51,1.08,7.28-.73,1.06-1.07,1.37-2.94,2.79-3.45,1.17-.43,2.4.36,3.51.93a11.64,11.64,0,0,0,8.55.83c1.6-.47,3.25-4.43,3.71-6.11a7.28,7.28,0,0,0-2.6-7.81c-2.31-1.55-5.28-1.59-8-1.57l-11,.06a30.43,30.43,0,0,0-8.42.84,15.57,15.57,0,0,0-10.66,16.39c.19,1.5.6,3.11-.09,4.46a11.94,11.94,0,0,1-1.68,2c-2.58,3-1.81,7.68,0,11.23s4.47,6.69,5.56,10.51c.62,2.21,1,5,3.18,5.79a3.8,3.8,0,0,0,4.36-2,8.31,8.31,0,0,0,.66-5.08" transform="translate(-64.71 -5.98)" fill="#606161"></path><path d="M217.31,113.61s-.84-5-4.2-3.35.84,10.91,2.52,11.75a4.87,4.87,0,0,0,2.5.71" transform="translate(-64.71 -5.98)" fill="#c58067"></path><path d="M249,139s4.44-2.91,8.63-2.8,48.29,9.28,53.31,16.46,4.44,17.81,1.56,18.74-17.86-4.88-21-6.3-29.34-4.72-29.34-4.72Z" transform="translate(-64.71 -5.98)" fill="#68e1fd"></path><path d="M308.22,170.94l-32-45.63s2.64-9.17,13.84-7.76c0,0,20.07,22.31,28.57,43.14C322.26,169.69,309.67,173.23,308.22,170.94Z" transform="translate(-64.71 -5.98)" fill="#68e1fd"></path><circle cx="294.62" cy="177.64" r="100.31" fill="#fdcd01"></circle><circle cx="293.93" cy="177.43" r="84.62" fill="url(#linear-gradient-5)"></circle><path d="M266.87,227.65c10.32,1.85,22.57,4.42,31.49-2.61a3,3,0,0,0,.63-.61,2.71,2.71,0,0,0,.4-1.24,7.29,7.29,0,0,0-1.63-5.56c-1.13-1.22-2.95-1.62-4.53-2.1a87.83,87.83,0,0,0-11.34-2.48c-6.07-1-16.14,2.59-16.14,2.59S259.89,223.09,266.87,227.65Z" transform="translate(-64.71 -5.98)" fill="#c58067"></path><path d="M199.46,158.07s7.19,2.4,9.71,5.76,22.66,43.64,20.14,52-10.95,14-13.74,12.84c-11-4.62-16.88-38.35-16.88-38.35Z" transform="translate(-64.71 -5.98)" fill="#68e1fd"></path><path d="M218,208.43l53,5.22s5.81,7.58-2,15.75c0,0-31,4.95-52.84-.57C206.81,226.45,215.27,208.24,218,208.43Z" transform="translate(-64.71 -5.98)" fill="#68e1fd"></path><path d="M275.34,118.33a6.14,6.14,0,0,0-2.32,2.08c-.7,1.32-.34,2.93.06,4.38a8.51,8.51,0,0,0,1.69,3.62,8.74,8.74,0,0,0,2.41,1.65,4.45,4.45,0,0,0,3.11.77,3.46,3.46,0,0,0,2.06-2.12c.41-.94.62-2,1.11-2.85,1.14-2,3.61-3.19,4.46-5.37a6.57,6.57,0,0,0,.31-2.86c-.14-2-1.07-4.4-3.08-4.77a4,4,0,0,0-2.23.33C280.31,114.24,277.77,116.81,275.34,118.33Z" transform="translate(-64.71 -5.98)" fill="#c58067"></path><path d="M226,205.89a5.87,5.87,0,0,0,1.41,2.84,6,6,0,0,0,3.87,1.11l8,.37c-9.74-7.82-14.31-19.14-19.53-30.07C221.3,188.81,223.6,197.42,226,205.89Z" transform="translate(-64.71 -5.98)" fill="url(#linear-gradient-6)"></path><path d="M188.63,434.59a14.41,14.41,0,0,0-1.58,4.61c-.55,4.9,3.43,9.22,7.78,11.55a16.51,16.51,0,0,0,10.37,2.19c3.55-.59,6.91-3.12,7.72-6.63.66-2.81-.33-5.72-1.32-8.43L209.46,432a2.72,2.72,0,0,0-.9-1.44,2.69,2.69,0,0,0-1.46-.29c-3.93-.06-8.31-.66-12.2-.17-1.47.19-2.17-.07-3.45.71C190.82,431.16,188.8,434.59,188.63,434.59Z" transform="translate(-64.71 -5.98)" fill="#606161"></path><path d="M334.14,439.36a1.81,1.81,0,0,1,.67,1.51c-.2.81-1.42,1.21-2.49,1.46-10.91,2.5-22.62,2.07-34,1.61a13.42,13.42,0,0,1-4.67-.75,6,6,0,0,1-3.34-5.07,32.11,32.11,0,0,0-.46-3.51c-.21-.91.57-1.82,1.78-2.09A79.14,79.14,0,0,0,301,429.2c3.83-1.33,6.37-.85,10.32.07C319.7,431.23,329.08,433.74,334.14,439.36Z" transform="translate(-64.71 -5.98)" fill="#606161"></path><path d="M297.5,106.9,416.6,264.14s21.52-12.3,30-30.74L332.81,86.59" transform="translate(-64.71 -5.98)" fill="url(#linear-gradient-7)"></path><path d="M395.48,204.5a21.49,21.49,0,0,1-3.41,6,23.71,23.71,0,0,1-4.69,4.4,22.26,22.26,0,0,1-5.17,2.76,35.27,35.27,0,0,1-10,2q-5.52.34-10.68.35h-40.5v-1.18a26.07,26.07,0,0,0,5.58-1.52,11,11,0,0,0,4.28-2.94,5.16,5.16,0,0,0,.94-2.05c.24-.9.45-1.94.65-3.11s.33-2.41.41-3.7.12-2.56.12-3.81c0-1.1,0-2.59.06-4.47s.07-3.93.11-6.16.06-4.52.06-6.86V166q0-2.58-.06-5.28c0-1.8-.06-3.88-.06-6.22,0-1.42,0-2.84-.11-4.29s-.22-2.84-.41-4.17-.44-2.52-.71-3.58a5,5,0,0,0-1.11-2.29,9.46,9.46,0,0,0-3.53-2.52,21.6,21.6,0,0,0-4.93-1v-1.17H361.9a66.16,66.16,0,0,1,8.51.52,35.44,35.44,0,0,1,7.81,1.94,23.34,23.34,0,0,1,9.86,6.81A17.39,17.39,0,0,1,392,156.37a16.52,16.52,0,0,1-5,12.51,25.92,25.92,0,0,1-13,6.39v.47a33.06,33.06,0,0,1,8.34,2.06,25.77,25.77,0,0,1,7.34,4.28,20.87,20.87,0,0,1,5.16,6.4,17.83,17.83,0,0,1,1.94,8.39A21.39,21.39,0,0,1,395.48,204.5Zm-20-58.57a17.28,17.28,0,0,0-7.45-6.58q-5.28-2.34-13.5-2.35a37.51,37.51,0,0,0-4.46.24,16.72,16.72,0,0,0-3.05.58c-.08.48-.16.9-.24,1.3a11.37,11.37,0,0,0-.18,1.46c0,.59-.07,1.32-.11,2.17s-.1,2-.18,3.41q-.12,4.11-.18,9c0,3.29-.05,6.42-.05,9.39v11.27h6.57c1.8,0,3.25,0,4.34-.12q10.57-.59,16-6a18.08,18.08,0,0,0,5.45-13.39A18.6,18.6,0,0,0,375.46,145.93Zm6.46,45.84a21.25,21.25,0,0,0-3.05-5.52,20.36,20.36,0,0,0-4.58-4.35,23,23,0,0,0-5.81-2.87,27.42,27.42,0,0,0-5.11-1.12,53.5,53.5,0,0,0-5.93-.29H346.06v14.67c0,2.19,0,4.21.05,6.05s.06,3.42.06,4.75c.08,3,.22,5.42.41,7.34a9.31,9.31,0,0,0,1.71,4.75,7.86,7.86,0,0,0,3.17,2.18,16.6,16.6,0,0,0,6.1.88,64.33,64.33,0,0,0,7.4-.47,22,22,0,0,0,7.74-2.47,19.39,19.39,0,0,0,7.63-6.87,18.85,18.85,0,0,0,2.7-10.27A18.23,18.23,0,0,0,381.92,191.77Z" transform="translate(-64.71 -5.98)" fill="#fdcd01"></path><rect x="280.4" y="114.42" width="7.21" height="16.75" fill="#fdcd01"></rect><rect x="295.1" y="114.42" width="7.21" height="16.75" fill="#fdcd01"></rect><rect x="280.4" y="213.66" width="7.21" height="16.75" fill="#fdcd01"></rect><rect x="295.1" y="213.66" width="7.21" height="16.75" fill="#fdcd01"></rect><path d="M566.85,391c0,14.33-53.68,26-119.9,26s-119.9-11.63-119.9-26c0-1.84-.28-8.76.13-16.26,0-.9.08-1.76.12-2.66,2.13-7.49,19-14.13,44.39-18.55C393.39,357.91,420.21,365,447,365c26.29,0,52.21-7,73.42-11.88,26.29,4.43,43.86,11.14,46.19,18.76,0,1,.08,2.05.13,3V375C567.05,382.57,566.85,389.28,566.85,391Z" transform="translate(-64.71 -5.98)" fill="#fdcd01"></path><path d="M566.85,391c0,14.33-53.68,26-119.9,26s-119.9-11.63-119.9-26c0-1.84-.28-8.76.13-16.26,0-.9.08-1.76.12-2.66,2.13-7.49,19-14.13,44.39-18.55C393.39,357.91,420.21,365,447,365c26.29,0,52.21-7,73.42-11.88,26.29,4.43,43.86,11.14,46.19,18.76,0,1,.08,2.05.13,3V375C567.05,382.57,566.85,389.28,566.85,391Z" transform="translate(-64.71 -5.98)" fill="url(#linear-gradient-8)"></path><path d="M566.85,373.68a4.8,4.8,0,0,1-.16,1.27V375c-3.2,13.68-55.61,24.57-119.74,24.57-64.66,0-117.36-11.06-119.77-24.9a3.91,3.91,0,0,1-.13-1,5.83,5.83,0,0,1,.25-1.64c2.13-7.49,19-14.13,44.39-18.55,20.55-3.6,46.72-5.77,75.26-5.77,27.68,0,53.15,2,73.42,5.44,26.29,4.43,43.86,11.14,46.19,18.76A5.16,5.16,0,0,1,566.85,373.68Z" transform="translate(-64.71 -5.98)" fill="#fdcd01"></path><path d="M566.85,365.6c0,14.33-53.68,26-119.9,26s-119.9-11.63-119.9-26c0-1.85-.28-8.77.13-16.26,0-.9.08-1.76.12-2.66,2.13-7.5,19-14.13,44.39-18.55,21.7,4.42,48.52,11.55,75.26,11.55,26.29,0,52.21-7,73.42-11.88,26.29,4.42,43.86,11.14,46.19,18.75,0,1,.08,2.05.13,3v.09C567.05,357.2,566.85,363.92,566.85,365.6Z" transform="translate(-64.71 -5.98)" fill="#fdcd01"></path><path d="M566.85,365.6c0,14.33-53.68,26-119.9,26s-119.9-11.63-119.9-26c0-1.85-.28-8.77.13-16.26,0-.9.08-1.76.12-2.66,2.13-7.5,19-14.13,44.39-18.55,21.7,4.42,48.52,11.55,75.26,11.55,26.29,0,52.21-7,73.42-11.88,26.29,4.42,43.86,11.14,46.19,18.75,0,1,.08,2.05.13,3v.09C567.05,357.2,566.85,363.92,566.85,365.6Z" transform="translate(-64.71 -5.98)" fill="url(#linear-gradient-9)"></path><path d="M566.85,348.32a4.78,4.78,0,0,1-.16,1.26v.09c-3.2,13.67-55.61,24.57-119.74,24.57-64.66,0-117.36-11.06-119.77-24.9a4,4,0,0,1-.13-1,5.77,5.77,0,0,1,.25-1.64c2.13-7.5,19-14.13,44.39-18.55,20.55-3.61,46.72-5.78,75.26-5.78,27.68,0,53.15,2,73.42,5.45,26.29,4.42,43.86,11.14,46.19,18.75A5.21,5.21,0,0,1,566.85,348.32Z" transform="translate(-64.71 -5.98)" fill="#fdcd01"></path><path d="M566.85,342.54c0,14.33-53.68,26-119.9,26s-119.9-11.63-119.9-26c0-1.85-.28-8.77.13-16.26,0-.9.08-1.76.12-2.66,2.13-7.5,19-14.13,44.39-18.55,21.7,4.42,48.52,11.55,75.26,11.55,26.29,0,52.21-7,73.42-11.88,26.29,4.42,43.86,11.14,46.19,18.76,0,1,.08,2,.13,3v.08C567.05,334.14,566.85,340.86,566.85,342.54Z" transform="translate(-64.71 -5.98)" fill="#fdcd01"></path><path d="M566.85,342.54c0,14.33-53.68,26-119.9,26s-119.9-11.63-119.9-26c0-1.85-.28-8.77.13-16.26,0-.9.08-1.76.12-2.66,2.13-7.5,19-14.13,44.39-18.55,21.7,4.42,48.52,11.55,75.26,11.55,26.29,0,52.21-7,73.42-11.88,26.29,4.42,43.86,11.14,46.19,18.76,0,1,.08,2,.13,3v.08C567.05,334.14,566.85,340.86,566.85,342.54Z" transform="translate(-64.71 -5.98)" fill="url(#linear-gradient-10)"></path><path d="M566.85,325.26a4.8,4.8,0,0,1-.16,1.27v.08c-3.2,13.67-55.61,24.57-119.74,24.57-64.66,0-117.36-11.06-119.77-24.9a4,4,0,0,1-.13-1,5.77,5.77,0,0,1,.25-1.64c2.13-7.5,19-14.13,44.39-18.55,20.55-3.6,46.72-5.78,75.26-5.78,27.68,0,53.15,2,73.42,5.45,26.29,4.42,43.86,11.14,46.19,18.76A5.12,5.12,0,0,1,566.85,325.26Z" transform="translate(-64.71 -5.98)" fill="#fdcd01"></path><path d="M543.8,323.63a3.78,3.78,0,0,1-.13,1v.07c-2.62,11.2-45.54,20.12-98.06,20.12-52.95,0-96.11-9.05-98.09-20.39a3.92,3.92,0,0,1-.1-.83,4.85,4.85,0,0,1,.2-1.35c1.75-6.13,15.56-11.57,36.36-15.19,16.83-2.95,38.26-4.73,61.63-4.73,22.67,0,43.53,1.68,60.13,4.46,21.53,3.63,35.92,9.13,37.83,15.36A4.31,4.31,0,0,1,543.8,323.63Z" transform="translate(-64.71 -5.98)" fill="url(#linear-gradient-11)"></path><path d="M422.41,336.57c-3,0-5.68-.11-8.17-.33s-4.75-.51-6.76-.88a38.14,38.14,0,0,1-5-1.19,22.74,22.74,0,0,1-5.74-2.66,45.11,45.11,0,0,1-4.06-3.05l-13.84-11.7,1.37-.12a22.22,22.22,0,0,0,3.69,1.44,25.62,25.62,0,0,0,4.9.92,25.16,25.16,0,0,0,2.72,0c1.14,0,2.42-.08,3.86-.15s2.93-.17,4.47-.28,3-.25,4.5-.39l5.24-.47,7.25-.64c2.62-.23,5.31-.47,8-.73l8-.74,7.28-.68,6-.56,6.16-.6c2.09-.2,4.51-.44,7.26-.69,1.65-.16,3.3-.32,5-.5s3.25-.38,4.74-.58,2.8-.4,3.94-.59a11,11,0,0,0,2.3-.57c1.07-.48,1.65-.91,1.75-1.3a2,2,0,0,0-.52-1.53l1.38-.13,13.52,11.43a11.26,11.26,0,0,1,2.29,2.52,2.93,2.93,0,0,1,.4,2.46c-.38,1.32-1.91,2.51-4.6,3.59s-6.78,1.88-12.27,2.39a75,75,0,0,1-16.33-.08,41.74,41.74,0,0,1-11.92-3l-.55.05a2.83,2.83,0,0,1,.45,2.63,5.26,5.26,0,0,1-2.51,2.58,22.52,22.52,0,0,1-5.72,2.19,56.73,56.73,0,0,1-9.16,1.48C428.48,336.42,425.35,336.57,422.41,336.57Zm61.68-12.17c2.9-.91,4.61-1.87,5.15-2.87q.93-1.78-1.87-4.16a12.29,12.29,0,0,0-1.79-1.26,10.88,10.88,0,0,0-1.73-.82l-1.6.07-1.77.11-2.58.21-4,.32c-3.24.27-6.78.58-10.64.93l-11,1-8.79.82-4.39.41,2.25,1.9a16.87,16.87,0,0,0,1.62,1.24q4.29,3,12.47,4a82.41,82.41,0,0,0,17.53.12A55.49,55.49,0,0,0,484.09,324.4Zm-51.42,6.86a38.81,38.81,0,0,0,5.42-1.48,13.19,13.19,0,0,0,3.51-1.8,3.23,3.23,0,0,0,1.38-2,2.37,2.37,0,0,0-.44-1.6,9.71,9.71,0,0,0-1.68-1.74L437,319.36l-8.79.82-8.38.78-7.05.68-5.54.54c-3.46.34-6.27.65-8.45.91a25.14,25.14,0,0,0-5,1,2.48,2.48,0,0,0-1.47,1.16c-.2.47.15,1.09,1.06,1.86a21.42,21.42,0,0,0,3.08,2.08,21.14,21.14,0,0,0,5.53,2,57.6,57.6,0,0,0,10.64,1.45,88.46,88.46,0,0,0,12.94-.34A61.32,61.32,0,0,0,432.67,331.26Z" transform="translate(-64.71 -5.98)" fill="#fdcd01"></path><polygon points="421.73 310.77 419.27 308.69 438.87 306.86 441.33 308.95 421.73 310.77" fill="#fdcd01"></polygon><polygon points="426.76 315.02 424.29 312.94 443.89 311.11 446.36 313.19 426.76 315.02" fill="#fdcd01"></polygon><polygon points="305.64 321.6 303.17 319.52 322.77 317.69 325.24 319.77 305.64 321.6" fill="#fdcd01"></polygon><polygon points="310.66 325.85 308.19 323.77 327.8 321.94 330.26 324.02 310.66 325.85" fill="#fdcd01"></polygon><path d="M354.14,309.11,511.52,346s34.59-3.46,42.08-10.95L399.11,301S357.6,306.8,354.14,309.11Z" transform="translate(-64.71 -5.98)" fill="url(#linear-gradient-12)"></path></svg>