<svg xmlns="http://www.w3.org/2000/svg" viewBox="0 0 400 300" width="406" height="306" class="illustration styles_illustrationTablet__1DWOa"><g id="_204_bitcoin_outline" data-name="#204_bitcoin_outline"><path d="M184.38,132.35H181v9.91L148.2,116.32l14.44-11.41A53.64,53.64,0,0,1,184.38,132.35Z" fill="#ffbc0e"></path><path d="M181,143.26a1,1,0,0,1-.62-.22l-32.83-25.93a1,1,0,0,1,0-1.57L162,104.13a1,1,0,0,1,1.16-.06,54.78,54.78,0,0,1,22.14,28,1,1,0,0,1-.94,1.33H182v8.91a1,1,0,0,1-.56.9A1.13,1.13,0,0,1,181,143.26Zm-31.22-26.94L180,140.19v-7.84a1,1,0,0,1,1-1H183a52.84,52.84,0,0,0-20.25-25.21Z" fill="#093f68"></path><circle cx="133.89" cy="150" r="53.47" fill="#68e1fd"></circle><path d="M133.89,204.47A54.47,54.47,0,1,1,188.36,150,54.54,54.54,0,0,1,133.89,204.47Zm0-106.94A52.47,52.47,0,1,0,186.36,150,52.53,52.53,0,0,0,133.89,97.53Z" fill="#093f68"></path><path d="M133.89,196.36A46.36,46.36,0,1,1,180.25,150,46.41,46.41,0,0,1,133.89,196.36Zm0-90.72A44.36,44.36,0,1,0,178.25,150,44.4,44.4,0,0,0,133.89,105.64Z" fill="#093f68"></path><circle cx="266.11" cy="150" r="53.47" fill="#ffbc0e"></circle><path d="M266.11,204.47A54.47,54.47,0,1,1,320.58,150,54.53,54.53,0,0,1,266.11,204.47Zm0-106.94A52.47,52.47,0,1,0,318.58,150,52.53,52.53,0,0,0,266.11,97.53Z" fill="#093f68"></path><path d="M250.93,183.69l-14,11.09a53.65,53.65,0,0,1-21.27-27.13h2.48v-9.91Z" fill="#ffbc0e"></path><path d="M236.89,195.78a1,1,0,0,1-.55-.16A54.83,54.83,0,0,1,214.68,168a1,1,0,0,1,.94-1.33h1.48v-8.91a1,1,0,0,1,1.62-.78l32.83,25.94a1,1,0,0,1,0,1.57l-14,11.1A1,1,0,0,1,236.89,195.78Zm-19.84-27.13a52.94,52.94,0,0,0,19.78,24.9l12.49-9.86L219.1,159.81v7.84a1,1,0,0,1-1,1Z" fill="#093f68"></path><path d="M266.11,196.36A46.36,46.36,0,1,1,312.46,150,46.42,46.42,0,0,1,266.11,196.36Zm0-90.72A44.36,44.36,0,1,0,310.46,150,44.41,44.41,0,0,0,266.11,105.64Z" fill="#093f68"></path><path d="M261.69,180.55v-4.83c-1.77-.48-3.48-.85-5.12-1.41a14.92,14.92,0,0,1-7.88-5.91,14.68,14.68,0,0,1-2.27-8.19h9.44c.44,3.51,2.15,6,5.79,7V154.39c-1.89-.55-3.79-1.07-5.65-1.66a13.23,13.23,0,0,1-5.49-3.13,10.86,10.86,0,0,1-3.06-5.95,15.18,15.18,0,0,1,.6-8.23,13.66,13.66,0,0,1,8.29-8.22,42.21,42.21,0,0,1,4.77-1.23l.58-.12v-6.4h8.83v.62c0,1.83,0,3.66,0,5.49,0,.46.14.6.57.69a18.62,18.62,0,0,1,8.24,3.85,13.29,13.29,0,0,1,4.68,8.2c.15.88.22,1.77.34,2.69h-9.61a6.71,6.71,0,0,0-4.16-6.09v12c.32.07.67.17,1,.24a33.9,33.9,0,0,1,7.53,2.41,10.89,10.89,0,0,1,6.52,9.1A14.22,14.22,0,0,1,283.17,169a14.43,14.43,0,0,1-7.12,5.28c-1.77.61-3.62,1-5.53,1.55v4.68Zm8.86-24.32v11.13a8.07,8.07,0,0,0,3.91-1.72c2.05-1.69,2.78-5.88-.23-7.72A32.94,32.94,0,0,0,270.55,156.23Zm-8.9-11.41V134.07a32.08,32.08,0,0,0-3.37,1.71c-2.45,1.64-2.84,6.18.29,7.77C259.54,144,260.57,144.38,261.65,144.82Z" fill="#fff"></path><path d="M270.52,181.55h-8.83a1,1,0,0,1-1-1v-4.06l-.9-.23c-1.17-.3-2.38-.61-3.55-1a15.93,15.93,0,0,1-8.38-6.3,15.52,15.52,0,0,1-2.44-8.74,1,1,0,0,1,.29-.71,1,1,0,0,1,.71-.29h9.45a1,1,0,0,1,1,.88c.35,2.88,1.57,4.73,3.79,5.71V155.14l-1-.29c-1.31-.38-2.63-.76-3.94-1.17a14.15,14.15,0,0,1-5.89-3.37,11.84,11.84,0,0,1-3.33-6.49,16,16,0,0,1,.64-8.75,14.64,14.64,0,0,1,8.87-8.8,22.55,22.55,0,0,1,3.42-.93c.43-.1.86-.19,1.29-.3v-5.59a1,1,0,0,1,1-1h8.83a1,1,0,0,1,1,1v2.11c0,1.25,0,2.5,0,3.76a19.37,19.37,0,0,1,8.45,4,14.38,14.38,0,0,1,5,8.8c.1.61.17,1.23.24,1.87,0,.29.06.58.1.87a1,1,0,0,1-.24.79,1,1,0,0,1-.75.33h-9.61a1,1,0,0,1-1-.94,5.68,5.68,0,0,0-2.16-4.38v9.41l.24,0a35,35,0,0,1,7.75,2.48,11.91,11.91,0,0,1,7.1,9.89A15.23,15.23,0,0,1,284,169.62a15.44,15.44,0,0,1-7.6,5.65c-1.26.43-2.51.75-3.83,1.1l-1,.26v3.92A1,1,0,0,1,270.52,181.55Zm-7.83-2h6.83v-3.68a1,1,0,0,1,.74-1l1.79-.47c1.28-.33,2.49-.65,3.67-1.05a13.43,13.43,0,0,0,6.64-4.93,13.16,13.16,0,0,0,2.31-9.71,9.87,9.87,0,0,0-6-8.32,33,33,0,0,0-7.31-2.33c-.26-.05-.51-.12-.75-.18l-.31-.07a1,1,0,0,1-.77-1v-12a1,1,0,0,1,.46-.84,1,1,0,0,1,1-.06,7.62,7.62,0,0,1,4.64,6h7.59c-.06-.51-.12-1-.2-1.52a12.27,12.27,0,0,0-4.34-7.61,17.66,17.66,0,0,0-7.8-3.63,1.54,1.54,0,0,1-1.37-1.68c0-1.33,0-2.66,0-4v-1.11h-6.83v5.4a1,1,0,0,1-.81,1l-.22,0-.31.06c-.5.13-1,.24-1.52.35a21.21,21.21,0,0,0-3.14.85,12.71,12.71,0,0,0-7.71,7.64,14.14,14.14,0,0,0-.55,7.69,9.83,9.83,0,0,0,2.78,5.42,12,12,0,0,0,5.09,2.88c1.28.41,2.58.78,3.88,1.15l1.75.51a1,1,0,0,1,.72,1v12.82a1,1,0,0,1-1.26,1,8.28,8.28,0,0,1-6.38-7h-7.56a13.13,13.13,0,0,0,2.08,6.64,13.93,13.93,0,0,0,7.36,5.51c1.09.38,2.21.66,3.4,1l1.66.43a1,1,0,0,1,.74,1Zm7.86-11.19a1,1,0,0,1-.64-.24,1,1,0,0,1-.36-.76V156.23a1,1,0,0,1,.46-.84,1,1,0,0,1,1-.07l1.18.51a18.26,18.26,0,0,1,2.61,1.24,5.12,5.12,0,0,1,2.47,4.13,6.38,6.38,0,0,1-2.14,5.21,9,9,0,0,1-4.37,1.94Zm1-10.62v8.36a6.75,6.75,0,0,0,2.28-1.24,4.38,4.38,0,0,0,1.41-3.52,3.15,3.15,0,0,0-1.53-2.56A16,16,0,0,0,271.55,157.74Zm-9.9-11.92a1,1,0,0,1-.38-.07l-1-.4c-.71-.27-1.45-.56-2.15-.91a5.09,5.09,0,0,1-2.78-4.35,5.81,5.81,0,0,1,2.38-5.14,17.8,17.8,0,0,1,2.37-1.25c.37-.17.74-.34,1.11-.53a1,1,0,0,1,1.45.9v10.75a1,1,0,0,1-.44.83A1,1,0,0,1,261.65,145.82Zm-1-10.17a14.16,14.16,0,0,0-1.82,1,3.85,3.85,0,0,0-1.49,3.36,3.11,3.11,0,0,0,1.68,2.68c.51.26,1.06.48,1.63.71Z" fill="#093f68"></path><path d="M139.62,119.14v7.08s6.33.24,9.14,1.59c5.39,2.59,8.54,6.2,6.65,13-1.25,4.53-5.32,6.92-5.24,6.94s9,1.54,8.13,13.48c-1.09,14.75-18.74,12.81-18.74,12.81V181a2.72,2.72,0,0,1-2.72,2.72H136A2.72,2.72,0,0,1,133.3,181v-7.25h-5v7.21a2.72,2.72,0,0,1-2.72,2.72h-.81a2.72,2.72,0,0,1-2.73-2.72V173.4H109.42l1.28-7.6c1.38,0,2.65,0,3.92,0,2.13.08,3-1,3-3,0-7.42.07-14.84.12-22.26v-.9c0-6.19-.36-6.59-6.46-6.58h-1.48v-6.56h12.47V119a2.72,2.72,0,0,1,2.72-2.72h.82A2.72,2.72,0,0,1,128.5,119v7h4.81v-6.91a2.72,2.72,0,0,1,2.73-2.72h.86A2.72,2.72,0,0,1,139.62,119.14Zm-11,34.3v12.4c4.32.22,8.52.26,12.6-1.11,3.09-1,4.65-2.95,4.69-5.45a5.63,5.63,0,0,0-4.78-5.81C137.17,152.63,128.66,153.44,128.66,153.44Zm.06-7.5a24.78,24.78,0,0,0,10.89-1.18,5.07,5.07,0,0,0,3.5-4.83,5.21,5.21,0,0,0-3.64-5.2c-3.46-1.34-7.06-1.22-10.75-1Z" fill="#fff"></path><path d="M136.84,184.68H136A3.73,3.73,0,0,1,132.3,181v-6.25h-3v6.21a3.73,3.73,0,0,1-3.72,3.72h-.81a3.73,3.73,0,0,1-3.73-3.72V174.4H109.42a1,1,0,0,1-.76-.35,1,1,0,0,1-.22-.81l1.27-7.61a1,1,0,0,1,1-.83H112c.92,0,1.8,0,2.68,0a2,2,0,0,0,1.49-.36,2.35,2.35,0,0,0,.45-1.68c0-5.35,0-10.7.08-16.06l0-7.1c0-2.48,0-4.28-.64-4.91s-2-.67-4.82-.66h-1.48a1,1,0,0,1-1-1v-6.56a1,1,0,0,1,1-1h11.47V119a3.73,3.73,0,0,1,3.72-3.72h.82A3.73,3.73,0,0,1,129.5,119v6h2.81v-5.91a3.73,3.73,0,0,1,3.73-3.72h.86a3.73,3.73,0,0,1,3.72,3.72v6.13c1.93.13,6.26.53,8.57,1.64,4.21,2,9.54,5.7,7.19,14.21a13.06,13.06,0,0,1-4.15,6.31c2.83,1.25,7.74,4.75,7.07,13.91a13.55,13.55,0,0,1-4.75,9.85c-4.68,3.9-11.36,4.07-14,4V181A3.73,3.73,0,0,1,136.84,184.68Zm-8.57-12h5a1,1,0,0,1,1,1V181a1.72,1.72,0,0,0,1.72,1.72h.82a1.72,1.72,0,0,0,1.72-1.72v-6.88a1,1,0,0,1,1.11-1c.08,0,8.46.86,13.61-3.44a11.62,11.62,0,0,0,4-8.46c.81-10.9-7-12.36-7.3-12.41a1,1,0,0,1-.82-.82,1.08,1.08,0,0,1,.56-1.1,11.59,11.59,0,0,0,4.71-6.28c1.52-5.52-.31-9.07-6.13-11.87-2.58-1.24-8.68-1.49-8.74-1.49a1,1,0,0,1-1-1v-7.08a1.72,1.72,0,0,0-1.72-1.72H136a1.73,1.73,0,0,0-1.73,1.72v6.91a1,1,0,0,1-1,1H128.5a1,1,0,0,1-1-1v-7a1.72,1.72,0,0,0-1.72-1.72H125a1.72,1.72,0,0,0-1.72,1.72v7.44a1,1,0,0,1-1,1H110.77V132h.48c3.08,0,5.07.08,6.23,1.25s1.25,3.19,1.23,6.33l0,7.1c0,5.35-.08,10.71-.08,16.06a4.13,4.13,0,0,1-1.06,3.11,3.84,3.84,0,0,1-3,.92c-.85,0-1.71,0-2.59,0h-.44l-1,5.61H122a1,1,0,0,1,1,1v7.52a1.73,1.73,0,0,0,1.73,1.72h.81a1.72,1.72,0,0,0,1.72-1.72v-7.21A1,1,0,0,1,128.27,172.71ZM132.5,167c-1.31,0-2.62-.06-3.89-.12a1,1,0,0,1-1-1v-12.4a1,1,0,0,1,.9-1c.36,0,8.71-.82,12.82.05a6.61,6.61,0,0,1,5.57,6.8c0,3-1.95,5.24-5.37,6.38A28.25,28.25,0,0,1,132.5,167Zm-2.84-2.07a31.34,31.34,0,0,0,11.28-1.1c2.63-.88,4-2.4,4-4.52a4.67,4.67,0,0,0-4-4.82c-3.06-.64-9-.27-11.3-.09Zm2.14-17.83c-1.09,0-2.15-.05-3.16-.12a1,1,0,0,1-.93-1V133.68a1,1,0,0,1,1-1c3.46-.16,7.38-.35,11.16,1.12a6.18,6.18,0,0,1,4.28,6.17,6.07,6.07,0,0,1-4.14,5.72A22.55,22.55,0,0,1,131.8,147.06ZM129.71,145a22.69,22.69,0,0,0,9.54-1.18,4.06,4.06,0,0,0,2.86-3.92,4.24,4.24,0,0,0-3-4.24c-3-1.18-6.37-1.16-9.39-1Z" fill="#093f68"></path><path d="M246.38,100.29a53.62,53.62,0,0,0-30.76,32.06H181v9.91L148.2,116.32l14.44-11.41L181,90.38v9.91Z" fill="#fff"></path><path d="M181,143.26a1,1,0,0,1-.62-.22l-32.83-25.93a1,1,0,0,1,0-1.57L180.41,89.6a1,1,0,0,1,1.06-.12,1,1,0,0,1,.56.9v8.91h64.35a1,1,0,0,1,.37,1.93,52.46,52.46,0,0,0-30.19,31.46,1,1,0,0,1-.94.67H182v8.91a1,1,0,0,1-.56.9A1.13,1.13,0,0,1,181,143.26Zm-31.22-26.94L180,140.19v-7.84a1,1,0,0,1,1-1h33.89a54.42,54.42,0,0,1,26.78-30.06H181a1,1,0,0,1-1-1V92.45Z" fill="#093f68"></path><path d="M250.93,183.69l-14,11.09L218.1,209.62v-9.91H153.62a53.62,53.62,0,0,0,30.76-32.06H218.1v-9.91Z" fill="#fff"></path><path d="M218.1,210.62a.91.91,0,0,1-.43-.1,1,1,0,0,1-.57-.9v-8.91H153.62a1,1,0,0,1-.37-1.93,52.41,52.41,0,0,0,30.18-31.46,1,1,0,0,1,.95-.67H217.1v-8.91a1,1,0,0,1,1.62-.78l32.83,25.94a1,1,0,0,1,0,1.57L218.72,210.4A1,1,0,0,1,218.1,210.62Zm-59.81-11.91H218.1a1,1,0,0,1,1,1v7.84l30.22-23.86L219.1,159.81v7.84a1,1,0,0,1-1,1h-33A54.4,54.4,0,0,1,158.29,198.71Z" fill="#093f68"></path></g></svg>