<?xml version="1.0" encoding="utf-8"?>
<!-- Generator: Adobe Illustrator 23.0.3, SVG Export Plug-In . SVG Version: 6.00 Build 0)  -->
<svg version="1.1" id="logosvg.com" xmlns="http://www.w3.org/2000/svg" xmlns:xlink="http://www.w3.org/1999/xlink" x="0px"
	 y="0px" viewBox="0 0 400 300" style="enable-background:new 0 0 400 300;" xml:space="preserve">
<path id="logo" d="M207,118.5l-11.7,2.7V121l11.3-9.4l0.4,0.2l-0.8,4.3L207,118.5z M34.5,163.3c-2.1,2.1-4.9,3.3-7.8,3.3
	c-9,0-11.3-8-11.3-17.5c0-9.4,2.1-17.5,11.1-17.5c2.8-0.1,5.5,1.1,7.4,3.3l5.1,7.8h0.4V131H39l-4.7,2.5c-2.2-1.8-4.9-2.9-7.8-2.9
	c-8.8,0-19.3,6.8-19.3,18.7S17.5,168,26.7,168c3,0,5.9-1.1,8.2-3.1l4.5,2.7h0.4v-12.3h-0.4L34.5,163.3z M87.1,149.1
	c0,11.3-10.3,18.7-18.9,18.7c-8.6,0-18.9-7.4-18.9-18.7c0-11.3,10.3-18.7,18.9-18.7C77,130.4,87.1,137.8,87.1,149.1z M79.1,149.1
	c0-9.9-2.3-17.5-10.9-17.5c-8.6,0-10.9,7.6-10.9,17.5c0,9.9,2.3,17.5,10.9,17.5C77,166.5,79.1,158.9,79.1,149.1z M119.7,132h4.5
	v22.6H124L108,131H93.6v1H98v34.1h-4.3v1h10.3v-1h-4.5V132l25.9,35.7h0.4V132h4.3v-1h-10.3V132z M175.4,148.9
	c0,14.8-13.3,18.3-21.4,18.3h-16.2v-1h4.7V132h-4.7v-1H154C162,131,175.4,134.1,175.4,148.9z M167.4,149.1c0-10.3-4.3-17-13.8-17
	h-3.9v34.1h3.9C163,166.1,167.4,159.4,167.4,149.1z M207.6,166.1h-13.6v-17.9h6.8c1.9,2.1,3.5,4.4,4.7,7h0.4v-15h-0.4
	c-1.2,2.6-2.8,4.9-4.7,7h-6.8V132h12.1c3.5,2.3,6.6,8.6,6.6,8.6h0.4V131h-31v1h4.7v34.1h-4.7v1h32V155h-0.4
	C212.3,159,210.2,162.8,207.6,166.1z M263,132h4.5v22.6h-0.2l-16-23.6h-14.6v1h4.5v34.1h-4.5v1H247v-1h-4.3V132l25.9,35.7h0.2V132
	h4.5v-1H263V132z M312.9,165.9h4.3v1h-16.8v-1h4.7l-6-12.9h-11.7l-5.5,12.9h4.1v1h-9.7v-1h4.3l15.4-36.1h0.4L312.9,165.9z
	 M299,152.2l-5.5-12.5l-5.3,12.5H299z M342.7,146l-7.2-2.5c-3.5-1.2-6.4-2.9-6.4-6.4c0-3.5,3.1-5.7,7.8-5.7c2.4-0.2,4.7,0.7,6.4,2.5
	l5.1,7.8h0.4v-11.5h-0.4l-4.7,2.5c-1.9-1.6-4.3-2.5-6.8-2.5c-6-0.3-11.1,4.2-11.5,10.2c0,0.1,0,0.3,0,0.4c0,5.1,3.7,7.8,7.6,9.2
	l7.2,2.7c3.9,1.4,6.4,3.1,6.4,6.8s-2.5,6.8-8.6,6.8c-3-0.1-5.9-1.2-8.2-3.1l-5.3-8.8h-0.6V167h0.6l4.5-2.5c2.5,1.9,5.5,3,8.6,3.1
	c7.8,0,12.9-5.5,12.9-11.7S347.2,147.5,342.7,146z M358.9,131.2v11.1h0.4c1.8-3.6,3.9-7.1,6.4-10.3h6.4v34.1h-5.7v1H385v-1h-5.7V132
	h6.4c2.5,3.2,4.6,6.6,6.4,10.3h0.4v-11.1H358.9z"/>
</svg>
