<?xml version="1.0" encoding="utf-8"?>
<!-- Generator: Adobe Illustrator 14.0.0, SVG Export Plug-In . SVG Version: 6.00 Build 43363)  -->
<!DOCTYPE svg PUBLIC "-//W3C//DTD SVG 1.1//EN" "http://www.w3.org/Graphics/SVG/1.1/DTD/svg11.dtd">
<svg version="1.1" id="THE_NY_Times" xmlns:svg="http://www.w3.org/2000/svg"
	 xmlns="http://www.w3.org/2000/svg" xmlns:xlink="http://www.w3.org/1999/xlink" x="0px" y="0px" width="400px" height="300px"
	 viewBox="0 0 400 300" enable-background="new 0 0 400 300" xml:space="preserve">
<path id="path6" d="M30.839,124.756c-0.364,0.018-0.72,0.11-1.062,0.329c1.407,0.282,3.057,0.471,3.945,1.754
	c0.445,0.473,0.307,1.2-0.139,1.615c-0.842,1.004-2.287,1.319-3.523,0.998c-4.192-0.99-8.157-2.914-12.465-3.416
	c-2.308-0.303-4.563,0.807-6.154,2.413c-1.47,1.474-2.004,3.712-1.714,5.733c0.326,1.599,1.511,3.259,3.225,3.495
	c-1.016-1.103-1.208-3.018-0.155-4.165c0.596-0.738,1.652-0.84,2.531-0.704c3.338,0.621,6.592,1.625,9.921,2.302
	c1.864,0.507,3.707,1.113,5.613,1.459c0.034,2.278,0.034,4.553,0,6.829c-1.229,0.919-2.405,1.908-3.612,2.856
	c1.175,0.879,2.387,1.702,3.601,2.525c0.079,3.223-0.013,6.442,0.046,9.663c-1.986,1.535-4.647,1.783-7.065,1.5
	c-2.567-0.145-4.848-1.672-6.529-3.53c2.819-1.504,5.692-2.923,8.577-4.304c0.103-5.077,0.02-10.159,0.047-15.239
	c-3.604,1.511-7.172,3.104-10.765,4.637c1.038-2.655,3.151-4.807,5.67-6.085c-0.656,0.039-1.348-0.009-1.961,0.277
	c-4.716,1.861-8.603,5.864-10.064,10.745c-0.979,3.102-0.664,6.492,0.397,9.524c1.315,3.374,3.748,6.359,6.975,8.064
	c1.812,0.936,3.761,1.813,5.837,1.84c4.299,0.356,8.82-1.265,11.721-4.5c1.267-1.358,1.905-3.132,2.532-4.847
	c0.582-1.687,0.845-3.484,0.785-5.271c-1.392,2.759-3.242,5.351-5.769,7.181c0.017-3.209-0.006-6.418,0.005-9.627
	c1.1-0.837,2.202-1.673,3.266-2.555c-1.092-0.967-2.177-1.933-3.266-2.901c0.005-2.256-0.004-4.518,0-6.772
	c2.458-0.129,5.286-1.426,5.948-4.003c0.461-1.682,0.702-3.674-0.329-5.197c-0.949-1.08-2.179-2.018-3.623-2.278
	C32.484,125.033,31.641,124.718,30.839,124.756z M19.343,140.232c-0.01,4.892,0.028,9.783-0.019,14.675
	c-0.815,0.321-1.62,0.672-2.423,1.026c-1.481-2.145-2.402-4.668-2.826-7.229c-0.114-2.161,0.286-4.35,1.039-6.378
	C16.535,141.65,17.926,140.92,19.343,140.232z"/>
<path id="path8" d="M301.165,124.756c-0.394-0.012-0.78,0.066-1.146,0.329c0.83,0.192,1.709,0.274,2.486,0.664
	c0.69,0.332,1.148,1.02,1.39,1.73c0.13,0.769-0.435,1.476-1.107,1.765c-1.209,0.558-2.581,0.3-3.813-0.035
	c-2.953-0.904-5.829-2.074-8.842-2.78c-1.548-0.331-3.172-0.642-4.735-0.231c-1.697,0.478-3.418,1.29-4.42,2.803
	c-1.291,1.668-1.454,3.963-0.824,5.924c0.521,1.309,1.571,2.595,3.059,2.763c-0.484-0.624-1.319-1.252-1.08-2.14
	c0.135-0.881,0.501-1.775,1.206-2.348c0.706-0.532,1.673-0.526,2.491-0.288c3.005,0.558,5.938,1.401,8.906,2.105
	c2.014,0.426,3.945,1.177,5.97,1.552c0.035,2.268,0.011,4.535,0.019,6.805c-1.089,0.963-2.178,1.923-3.253,2.903
	c1.083,0.837,2.148,1.695,3.248,2.515c0.015,3.229-0.007,6.459,0.018,9.69c-1.907,1.428-4.414,1.778-6.726,1.459
	c-2.557-0.152-4.789-1.688-6.484-3.506c0.695-0.484,1.488-0.797,2.237-1.189c2.108-1.037,4.191-2.125,6.315-3.125
	c0.067-5.084,0.01-10.17,0.029-15.252c-3.581,1.525-7.134,3.123-10.729,4.615c0.821-1.95,2.134-3.734,3.898-4.927
	c0.528-0.482,1.064-0.987,1.788-1.153c-0.724,0.05-1.475,0.026-2.134,0.363c-5.065,2.049-9.383,6.518-10.337,12.009
	c-0.362,2.787-0.104,5.683,0.871,8.324c1.248,3.102,3.446,5.855,6.305,7.613c1.367,0.834,2.838,1.503,4.372,1.967
	c3.674,0.61,7.614,0.084,10.827-1.867c2.121-1.479,4.091-3.396,4.979-5.883c0.953-2.113,1.335-4.419,1.386-6.723
	c-0.443,0.58-0.703,1.27-1.079,1.888c-1.223,2.05-2.8,3.904-4.727,5.323c0.024-3.219-0.027-6.438,0.03-9.656
	c1.09-0.787,2.11-1.663,3.207-2.446c-1.011-1.046-2.157-1.952-3.23-2.929c-0.021-2.257,0.026-4.517-0.021-6.772
	c2.11-0.137,4.246-1.083,5.382-2.938c1.181-1.903,1.174-4.496,0.033-6.414c-0.897-1.186-2.307-1.95-3.767-2.169
	C302.509,125.043,301.826,124.776,301.165,124.756L301.165,124.756z M289.578,140.227c0.028,4.883,0,9.764,0.013,14.645
	c-0.834,0.351-1.656,0.718-2.487,1.069c-1.204-1.694-2.143-3.6-2.624-5.625c-0.533-2.653-0.394-5.53,0.843-7.977
	C286.751,141.655,288.161,140.94,289.578,140.227L289.578,140.227z"/>
<path id="path10" d="M117.982,126.383c1.375,2.409,0.515,5.674-1.555,7.409c-1.271,0.829-2.734,1.285-4.167,1.749
	c0.031,9.852,0.005,19.706,0.01,29.559c0.101,0.449-0.313,0.803-0.736,0.623c-0.838-0.039-1.059-0.923-1.415-1.519
	c-5.153-9.479-10.253-18.988-15.448-28.446c-0.101,6.957-0.003,13.919-0.05,20.879c2.455,0.463,4.847,1.646,6.452,3.6
	c0.745-0.576,1.228-1.594,2.184-1.824c-0.242,0.439-0.596,0.803-0.933,1.173c-1.856,2.056-3.71,4.119-5.564,6.181
	c-0.861-1.086-2.008-2.113-3.443-2.262c-0.943-0.036-2.035,0.012-2.723,0.758c-0.792,0.704-1.322,1.896-0.758,2.903
	c0.663,1.448,2.329,1.84,3.731,2.185c-1.753,0.348-3.717,0.146-5.131-1.031c-1.126-0.961-2.148-2.18-2.441-3.672
	c-0.394-2.054,0.22-4.336,1.755-5.791c1.677-1.66,4.137-2.277,6.439-2.146c0.063-3.032,0.034-6.063,0.013-9.096
	c-1.117-0.178-2.644-0.018-3.165,1.151c-0.302,0.948,0.408,1.747,1.112,2.267c-0.872-0.153-1.841-0.318-2.471-0.995
	c-0.743-0.916-1.32-1.998-1.534-3.165c-0.215-1.503,0.18-3.215,1.43-4.181c1.309-1.013,3.051-1.151,4.646-1.115
	c0-2.136,0-4.273,0-6.409c-0.579-0.87-1.135-1.866-2.129-2.317c-0.65-0.27-1.5-0.367-2.061,0.141
	c-0.774,0.657-0.962,1.703-1.27,2.619c-0.297-2.236-0.073-4.772,1.493-6.525c1.892-2.45,5.896-2.54,7.965-0.274
	c0.895,0.92,1.509,2.055,2.118,3.175c3.83,6.82,7.584,13.685,11.452,20.481c0.023-5.636,0.035-11.278-0.005-16.915
	c-0.664-0.259-1.404-0.251-2.081-0.486c-1.26-0.333-2.309-1.145-3.24-2.024c-0.582,0.683-1.169,1.364-1.71,2.076
	c-0.128-0.069-0.379-0.205-0.506-0.274c1.984-2.501,4.111-4.889,6.178-7.326c1.082,1.14,2.494,2.072,4.104,2.176
	C116.211,129.498,117.865,128.152,117.982,126.383L117.982,126.383z"/>
<path id="path12" d="M246.781,131.84c2.77-1.804,5.532-3.625,8.312-5.416c0.021,10.646-0.021,21.294,0.021,31.941
	c0.602,0.814,1.419,1.486,2.146,2.205c0.456-0.489,0.933-0.957,1.4-1.43c0.111,0.109,0.333,0.33,0.446,0.438
	c-2.217,1.923-4.365,3.918-6.596,5.817c-1.406-1.439-2.858-2.832-4.253-4.28c-0.625,0.557-1.197,1.165-1.786,1.758
	c-0.12-0.091-0.36-0.278-0.479-0.371c1.063-1.019,2.204-1.949,3.278-2.959c-0.01-8.067,0.007-16.136-0.01-24.202
	C249.237,133.833,248.469,132.027,246.781,131.84z"/>
<path id="path14" d="M40.04,132.153c2.384-1.776,4.722-3.618,7.106-5.387c0.012,5.865-0.002,11.733,0.007,17.6
	c2.02-1.666,4.054-3.31,6.052-5c1.604,1.663,3.102,3.431,4.753,5.041c0.697-0.501,1.412-0.975,2.145-1.424
	c-0.132,0.931-1.244,1.249-1.82,1.897c0.007,3.207,0,6.412,0.002,9.618c0.046,2.396-0.3,4.777-0.372,7.175
	c-0.107,2.597-1.117,5.252-3.142,6.959c-1.648,1.472-3.9,2.002-6.048,2.181c-0.036,0.051-0.115,0.154-0.154,0.207l0.058-0.189
	c-0.74,0-1.479-0.026-2.218-0.083c0.928-0.479,1.979-0.786,2.709-1.58c0.84-0.938,1.818-1.829,2.231-3.056
	c0.675-1.867,0.695-3.883,0.763-5.844c-0.018-4.396,0.021-8.793-0.021-13.187c-0.979-1.275-2.149-2.402-3.188-3.633
	c-0.568,0.606-1.249,1.116-1.735,1.79c-0.038,4.536-0.004,9.076-0.016,13.611c0.588,0.584,1.174,1.178,1.767,1.758
	c0.477-0.479,0.951-0.959,1.427-1.438c0.105,0.104,0.315,0.313,0.422,0.416c-2.308,1.804-4.591,3.638-6.898,5.438
	c-1.46-1.295-2.887-2.629-4.323-3.951c-0.482,0.359-0.965,0.724-1.449,1.082c-0.104-0.108-0.308-0.326-0.411-0.436
	c1.106-0.711,2.193-1.457,3.29-2.185c-0.002-8.065-0.002-16.129,0-24.197c-0.023-0.615,0.006-1.28-0.319-1.83
	c-0.214-0.419-0.698-0.553-1.062-0.808C39.513,132.433,39.896,132.32,40.04,132.153L40.04,132.153z"/>
<path id="path16" d="M198.953,127.871c-2.169,1.756-4.289,3.566-6.438,5.347c-0.022-1.68,0.029-3.356-0.029-5.036
	c-0.331-0.016-0.478,0.134-0.431,0.45c-0.013,11.875,0.003,23.746-0.006,35.62c-1.173-0.225-2.347-0.459-3.508-0.721
	c-0.018-10.014,0-20.026-0.005-30.042c-0.024-1.266-0.437-2.541-1.269-3.507c-1.038-1.23-2.662-1.8-4.229-1.909
	c-1.856-0.054-3.561,0.923-4.856,2.18c-1.193,1.133-1.833,2.884-1.494,4.511c0.146-1.008,0.474-2.145,1.402-2.705
	c1.018-0.434,2.373-0.084,2.98,0.871c0.522,0.771,0.574,1.735,0.595,2.637c0.005,2.706-0.002,5.413,0,8.122
	c-1.786,0.028-3.895,0.315-4.926,1.973c-1.039,1.296-1.358,3.135-0.646,4.66c0.468,1.509,2.037,2.287,3.494,2.525
	c-0.816-0.527-1.646-1.457-1.164-2.492c0.647-1.038,2.123-1.189,3.219-0.888c0.043,4.806,0.021,9.605,0.011,14.409
	c-1.639,0.572-3.231,1.564-4.106,3.107c-0.638,1.102-0.653,2.418-0.601,3.652c0.196,2.163,1.625,4.141,3.542,5.127
	c1.448,0.68,3.08,0.699,4.649,0.646c4.453-0.264,8.684-2.032,13.146-2.18c1.329-0.1,2.108,1.369,1.759,2.521
	c-0.265,1.041-1.137,1.745-1.96,2.354c1.566-0.334,3.125-0.922,4.35-1.984c1.38-1.17,2.015-3.057,1.927-4.829
	c-0.104-1.753-1.521-3.058-2.988-3.813c-1.937-1.135-4.272-0.881-6.402-0.65c-4.001,0.46-7.9,1.732-11.94,1.84
	c-1.371,0.094-2.651-0.879-2.925-2.221c-0.31-1.294,0.742-2.426,1.806-2.982c2.303-1.086,4.952-0.685,7.354-0.179
	c2.786,0.29,5.397,1.428,8.186,1.713c1.583,0.181,3.263-0.124,4.563-1.083c1.337-0.826,1.939-2.438,1.978-3.952
	c0.018-9.45-0.017-18.899,0.02-28.351c0.86-0.75,1.813-1.422,2.565-2.29c-1.052,0.26-1.713,1.247-2.573,1.851
	C202.301,130.76,200.636,129.309,198.953,127.871L198.953,127.871z M194.235,132.647c0.969,0.831,1.923,1.677,2.89,2.515
	c0.002,2.976-0.006,5.952,0,8.929c-0.459,0.453-0.961,0.93-1.633,1.015c-1.094,0.231-2.156-0.311-2.98-0.986
	c0.005-3.475,0.002-6.949,0-10.423C193.088,133.351,193.662,133.005,194.235,132.647L194.235,132.647z M192.511,144.945
	c1.416,0.72,3.238,0.938,4.613,0.007c-0.005,1.348-0.005,2.704,0,4.054c-0.558-0.544-1.275-0.977-2.076-0.975
	c-0.94-0.021-1.807,0.424-2.537,0.975C192.514,147.654,192.508,146.3,192.511,144.945z M195.037,148.458
	c0.914,0.023,1.614,0.705,2.088,1.425c-0.006,3.77,0.002,7.539,0,11.307c0.073,1.155-0.722,2.146-1.592,2.81
	c-0.84,0.666-1.979,0.688-3,0.635c-0.058-4.922-0.001-9.853-0.021-14.773C193.17,149.143,194.006,148.444,195.037,148.458z"/>
<path id="path18" d="M308.627,134.013c1.495-1.311,2.902-2.718,4.431-3.992c1.292,1.364,2.653,2.66,3.967,4.003
	c-1.576,1.475-3.161,2.937-4.759,4.389C311.059,136.938,309.817,135.5,308.627,134.013L308.627,134.013z"/>
<path id="path22" d="M136.065,135.416c0.935-0.641,2.116-0.602,3.195-0.741c-0.814,0.644-1.72,1.392-1.83,2.501
	c-0.184,0.992,0.444,1.884,1.177,2.48c1.332,1.066,3.041,1.662,4.125,3.027c0.521,0.66,0.837,1.495,0.814,2.341
	c-0.008,4.477,0.004,8.951-0.008,13.424c1.19,0.964,2.386,1.913,3.574,2.876c0.346-0.225,0.692-0.448,1.041-0.672
	c-0.017-4.885,0.025-9.771-0.021-14.653c-0.612-0.722-1.458-1.24-2.157-1.883c1.716-1.581,3.397-3.202,5.148-4.744
	c1.523,1.496,3.124,2.91,4.687,4.363c-0.593,0.629-1.204,1.236-1.83,1.832c-0.011,4.294,0,8.588-0.007,12.881
	c1.56,1.21,3.12,2.422,4.695,3.61c0.222-0.129,0.444-0.254,0.674-0.384c-0.023-5.243,0.002-10.485-0.015-15.729
	c-0.722-0.617-1.47-1.205-2.183-1.833c1.684-1.591,3.389-3.156,5.083-4.737c1.687,1.319,3.375,2.639,5.053,3.971
	c0.581-0.642,1.177-1.279,1.842-1.84c0.084,0.123,0.262,0.37,0.347,0.493c-1.437,1.278-2.862,2.571-4.252,3.898
	c-0.12,4.182-0.002,8.374-0.059,12.559c-3.652,2.398-7.466,4.589-11.172,6.923c-1.954-1.397-3.853-2.877-5.781-4.31
	c-1.729,1.392-3.463,2.785-5.206,4.162c-0.25,0.276-0.505-0.125-0.711-0.24c-1.628-1.309-3.249-2.629-4.897-3.907
	c-0.692,0.604-1.419,1.171-2.113,1.774c-0.111-0.106-0.328-0.315-0.439-0.42c0.848-0.586,1.677-1.203,2.522-1.789
	c0.004-4.053,0.004-8.104,0-12.158c-0.002-1.085-0.383-2.184-1.124-2.986c-0.815-0.883-1.911-1.504-2.559-2.539
	c-0.719-1.205-0.782-2.698-0.508-4.043C133.575,137.405,134.782,136.247,136.065,135.416L136.065,135.416z"/>
<path id="path24" d="M392.853,138.312c0.166,0.425,0.22,0.899,0.011,1.321c-0.51,1.166-1.897,1.613-3.08,1.592
	c-1.235-0.111-2.201-1-3.035-1.84c-1.396,0.938-2.803,1.867-4.197,2.803c-1.61,1.085-3.39,1.885-5.175,2.63
	c-0.007,2.294,0.002,4.582-0.006,6.875c1.306,1.089,2.646,2.125,3.924,3.242c-0.981,1.037-1.948,2.092-2.873,3.179
	c-0.95,1.145-1.849,2.468-1.903,4.002c-0.056,1.748,0.692,3.64,2.237,4.563c0.684,0.4,1.514,0.76,2.308,0.449
	c-0.986-0.354-2.202-1.068-2.116-2.273c0.273-1.139,1.627-1.9,2.751-1.572c1.164,0.332,2.128,1.162,2.872,2.099
	c2.995-2.155,6.149-4.085,9.427-5.784c-0.026-2.91,0.039-5.828-0.028-8.733c-1.447-1.016-2.826-2.122-4.259-3.154
	c1.516-1.918,3.036-3.946,3.669-6.346C393.613,140.349,393.692,139.073,392.853,138.312L392.853,138.312z M383.208,142.672
	c0.972,1.396,2.259,2.753,4.021,3.041c1.755,0.413,3.456-0.539,4.608-1.807c-1.575,2.914-4.021,5.255-6.548,7.351
	c-0.682-0.726-1.419-1.4-2.094-2.129C383.224,146.977,383.201,144.822,383.208,142.672L383.208,142.672z M385.683,151.371
	c0.756,0.637,1.504,1.286,2.262,1.927c0.345,0.208,0.176,0.642,0.225,0.97c-0.021,2.498,0.031,5.006-0.028,7.504
	c-0.565-1.276-1.412-2.467-2.607-3.225c-1.731-1.133-4.116-1.199-5.878-0.099c-0.808,0.446-1.454,1.116-2.064,1.794
	c0.875-1.706,2.287-3.055,3.616-4.406C382.725,154.373,384.242,152.913,385.683,151.371z"/>
<path id="path26" d="M74.117,139.379c-1.994,1.153-3.92,2.413-5.872,3.629c-1.653,0.863-3.335,1.677-5.001,2.514
	c0.008,4.673-0.006,9.346,0.013,14.018c-0.711,0.552-1.54,0.948-2.188,1.579c0.125,0.074,0.372,0.225,0.496,0.301
	c0.559-0.48,1.111-0.975,1.725-1.384c2.064,1.717,4.014,3.575,6.074,5.301c0.103-0.052,0.306-0.159,0.41-0.214
	c3.488-2.702,7.013-5.367,10.504-8.068l-0.433-0.382c-1.943,1.515-3.833,3.106-5.758,4.644c-1.59-1.431-3.127-2.916-4.712-4.354
	c-0.54-0.396-0.237-1.144-0.276-1.701c3.256-2.383,6.513-4.768,9.72-7.216C77.218,145.173,75.668,142.277,74.117,139.379z
	 M69.088,142.823c1.646,2.707,3.303,5.403,4.932,8.122c-1.657,1.164-3.299,2.344-4.938,3.529
	C69.065,150.592,69.057,146.706,69.088,142.823L69.088,142.823z"/>
<path id="path28" d="M128.073,139.373c-1.405,0.925-2.818,1.839-4.257,2.712c-2.102,1.314-4.38,2.304-6.581,3.437
	c0.007,4.67-0.013,9.342,0.006,14.013c-0.679,0.506-1.428,0.904-2.088,1.438c0.069,0.12,0.214,0.366,0.283,0.488
	c0.73-0.492,1.453-0.995,2.203-1.458c1.89,1.806,3.807,3.584,5.711,5.375c3.56-2.646,7.053-5.384,10.578-8.076
	c0.452-0.092,0.081-0.825-0.208-0.542c-1.91,1.481-3.765,3.039-5.647,4.557c-1.476-1.463-2.941-2.937-4.412-4.405
	c-0.476-0.419-0.193-1.115-0.219-1.662c3.133-2.325,6.17-4.784,9.31-7.1C131.305,145.17,129.612,142.306,128.073,139.373z
	 M123.401,142.914c1.615,2.631,3.095,5.349,4.586,8.054c-1.539,1.128-3.026,2.325-4.551,3.474
	C123.364,150.6,123.435,146.756,123.401,142.914z"/>
<path id="path30" d="M219.084,139.385c-1.539,0.897-3.062,1.823-4.558,2.792c-1.756,1.071-3.674,1.832-5.542,2.671
	c0.044,4.899,0.011,9.802,0.018,14.703c-0.625,0.623-1.258,1.244-1.862,1.881c0.127-0.008,0.38-0.025,0.506-0.033
	c0.444-0.475,0.906-0.937,1.362-1.396c2.098,1.716,4.163,3.468,6.247,5.202c0.344,0.332,0.732-0.163,1.066-0.283
	c3.352-1.832,6.518-3.991,9.968-5.637c0.054-4.566,0.017-9.13,0.022-13.698c0.624-0.624,1.254-1.244,1.862-1.881
	c-0.12,0.002-0.363,0.013-0.488,0.018c-0.583,0.478-1.171,0.942-1.755,1.413C223.648,143.221,221.372,141.291,219.084,139.385
	L219.084,139.385z M215.18,142.771c1.646,1.548,3.323,3.073,4.971,4.625c-0.017,4.861-0.012,9.721-0.012,14.583
	c-1.688-1.479-3.291-3.054-4.959-4.558V142.771L215.18,142.771z"/>
<path id="path32" d="M255.381,150.274c2.376-3.646,4.802-7.263,7.239-10.874c1.048,0.893,2.362,1.454,3.733,1.593
	c1.349,0.002,2.497-0.799,3.513-1.6c-0.256,1.967-0.911,4.013-2.423,5.381c-1.317,1.208-3.314,1.498-4.974,0.908
	c-0.979-0.333-1.884-0.854-2.693-1.493c-0.143,0.336-0.261,0.686-0.346,1.041c3.373,5.08,6.688,10.208,9.999,15.331
	c0.763-0.494,1.429-1.117,2.101-1.725c0.131,0.082,0.393,0.248,0.523,0.331c-2.383,2.125-4.843,4.165-7.286,6.224
	C261.626,160.361,258.555,155.284,255.381,150.274L255.381,150.274z"/>
<path id="path34" d="M369.497,139.379c-1.469,0.893-2.941,1.785-4.391,2.706c-2.004,1.393-4.304,2.26-6.431,3.437
	c0.021,4.67,0,9.345,0.011,14.013c-0.734,0.482-1.458,0.979-2.192,1.451c0.097,0.117,0.287,0.353,0.382,0.47
	c0.634-0.47,1.203-1.024,1.887-1.433c1.902,1.771,3.896,3.443,5.825,5.187c0.186,0.296,0.453-0.007,0.641-0.127
	c3.479-2.681,6.969-5.347,10.453-8.019c-0.408-0.715-0.872-0.021-1.281,0.271c-1.636,1.332-3.27,2.661-4.909,3.987
	c-1.678-1.531-3.296-3.118-5.006-4.609c-0.025-0.479-0.029-0.964-0.006-1.442c3.265-2.365,6.492-4.785,9.73-7.188
	C372.65,145.174,371.084,142.27,369.497,139.379L369.497,139.379z M364.461,142.904c1.766,2.609,3.315,5.366,4.973,8.052
	c-1.68,1.149-3.313,2.369-4.983,3.53C364.478,150.626,364.451,146.764,364.461,142.904L364.461,142.904z"/>
<path id="path36" d="M234.849,139.763c1.318,1.201,2.43,2.619,3.654,3.918c1.334-1.278,2.638-2.594,3.925-3.92
	c0.937,0.6,1.913,1.442,3.114,1.2c0.848-0.059,1.288-0.889,2.009-1.228c0.002,1.766-0.405,3.621-1.571,4.991
	c-1.339,1.603-3.87,2.069-5.661,0.972c-0.687-0.334-1.144-0.976-1.785-1.372c0.017,4.827,0.011,9.652,0.004,14.48
	c0.951,0.729,1.903,1.459,2.884,2.155c0.711-0.466,1.258-1.324,2.154-1.405c-2.108,2.008-4.318,3.918-6.518,5.831
	c-1.651-1.558-3.341-3.075-4.977-4.651c-0.637,0.572-1.226,1.197-1.83,1.798c-0.099-0.111-0.293-0.336-0.39-0.449
	c0.8-0.892,1.693-1.694,2.515-2.567c-0.03-4.131,0.017-8.262-0.021-12.389c-0.438-1.043-1.199-1.947-1.751-2.944
	c-0.756,0.445-1.304,1.373-2.242,1.405C230.496,143.614,232.726,141.748,234.849,139.763L234.849,139.763z"/>
<path id="path38" d="M320.466,144.927c1.965-1.719,3.886-3.482,5.86-5.187c1.416,1.563,2.881,3.081,4.272,4.665
	c2.086-1.507,4.089-3.125,6.153-4.665c1.445,1.551,2.866,3.127,4.326,4.665c2.046-1.551,4.067-3.133,6.128-4.663
	c1.407,1.569,2.858,3.099,4.282,4.655c0.872-0.558,1.674-1.224,2.561-1.757c0.068,0.517-0.401,0.753-0.73,1.039
	c-0.474,0.383-0.938,0.784-1.411,1.164c-0.04,4.298,0.009,8.593-0.025,12.89c0.818,0.849,1.654,1.687,2.507,2.5
	c0.448-0.467,0.91-0.926,1.351-1.406c0.131,0.083,0.396,0.248,0.527,0.331c-2.153,2.118-4.373,4.176-6.584,6.235
	c-1.558-1.84-3.19-3.617-4.71-5.488c0.368-0.34,0.729-0.692,1.084-1.049c0.004-3.705,0-7.41,0-11.113
	c-1.178-1.312-2.35-2.63-3.563-3.908c-0.352,0.357-0.701,0.712-1.047,1.072c-0.005,4.634,0.018,9.268-0.012,13.898
	c0.584,0.655,1.239,1.24,1.834,1.896c-1.595,1.414-3.133,2.895-4.717,4.322c-1.48-1.557-2.938-3.139-4.372-4.735
	c0.407-0.504,1.229-0.868,1.099-1.634c-0.021-3.614,0.018-7.229-0.021-10.839c-0.985-1.377-2.094-2.708-3.236-3.962
	c-0.335,0.355-0.676,0.704-1.018,1.051c0.01,4.488-0.024,8.979,0.017,13.467c0.483,0.825,1.208,1.502,1.809,2.246
	c-1.547,1.628-3.146,3.207-4.759,4.77c-1.542-1.836-3.138-3.625-4.691-5.449c0.484-0.377,0.975-0.748,1.461-1.123
	c-0.013-3.793-0.027-7.586,0.008-11.376c-0.909-1.126-1.906-2.177-2.859-3.264c-0.681,0.503-1.277,1.134-2.053,1.491
	C319.898,145.31,320.246,145.142,320.466,144.927z"/>
<path id="path40" d="M306.809,145.224c2.03-1.858,4.132-3.647,6.183-5.486c1.462,1.662,2.881,3.36,4.334,5.027
	c0.754-0.59,1.432-1.292,2.267-1.777c-0.063,0.265-0.134,0.539-0.382,0.689c-0.625,0.519-1.245,1.041-1.875,1.546
	c0.01,4.303-0.019,8.604,0.015,12.906c0.822,0.93,1.67,1.837,2.437,2.816c0.639-0.392,1.173-0.924,1.78-1.356
	c0.13,0.068,0.391,0.204,0.521,0.271c-2.027,1.9-4.133,3.725-6.244,5.525c-1.406-1.688-2.851-3.351-4.286-5.015
	c-0.624,0.567-1.146,1.256-1.833,1.749c-0.096-0.09-0.29-0.273-0.386-0.366c0.608-0.577,1.183-1.19,1.802-1.763
	c0.048-3.909,0.002-7.822,0.021-11.73c-0.037-0.544,0.139-1.188-0.286-1.622c-0.752-0.934-1.443-1.918-2.244-2.81
	C308.034,144.311,307.469,144.835,306.809,145.224L306.809,145.224z"/>
</svg>
