<?xml version="1.0" encoding="utf-8"?>
<!-- Generator: Adobe Illustrator 14.0.0, SVG Export Plug-In . SVG Version: 6.00 Build 43363)  -->
<!DOCTYPE svg PUBLIC "-//W3C//DTD SVG 1.1//EN" "http://www.w3.org/Graphics/SVG/1.1/DTD/svg11.dtd">
<svg version="1.1"
	 id="reuters" xmlns:dc="http://purl.org/dc/elements/1.1/" xmlns:cc="http://creativecommons.org/ns#" xmlns:rdf="http://www.w3.org/1999/02/22-rdf-syntax-ns#" xmlns:svg="http://www.w3.org/2000/svg" xmlns:sodipodi="http://sodipodi.sourceforge.net/DTD/sodipodi-0.dtd" xmlns:inkscape="http://www.inkscape.org/namespaces/inkscape" sodipodi:version="0.32" inkscape:version="0.46" sodipodi:docname="Reuters.svg" inkscape:output_extension="org.inkscape.output.svg.inkscape"
	 xmlns="http://www.w3.org/2000/svg" xmlns:xlink="http://www.w3.org/1999/xlink" x="0px" y="0px" width="400px" height="300px"
	 viewBox="0 0 400 300" enable-background="new 0 0 400 300" xml:space="preserve">
<g id="text" transform="matrix(2.3958112,0,0,-2.3958112,-669.21604,693.05492)">
	<g>
		<g id="g2416">
			<g id="g2422" transform="translate(547.33,44.554)">
				<path id="path2816" fill="#86888B" d="M-148.582,181.934c0-1.798,0.067-1.846,1.689-1.846h5.428c0.23,0,0.426-0.192,0.426-0.428
					v-1.369c0-0.302-0.108-0.409-0.426-0.451c-0.689-0.108-2.082-0.3-4.63-0.3c-3.565,0-5.447-0.023-5.447,4.393v6.782
					c0,4.413,1.882,4.389,5.447,4.389c2.548,0,3.941-0.192,4.63-0.299c0.318-0.04,0.426-0.15,0.426-0.451v-1.368
					c0-0.234-0.196-0.43-0.426-0.43h-5.428c-1.622,0-1.689-0.05-1.689-1.84v-1.967h6.858c0.236,0,0.426-0.194,0.426-0.426v-1.547
					c0-0.234-0.19-0.426-0.426-0.426h-6.858V181.934z"/>
				<path id="path2814" fill="#86888B" d="M-116.892,177.531c-1.893,0-3.815,0.327-4.844,0.564
					c-0.211,0.042-0.408,0.191-0.408,0.426v1.543c0,0.234,0.197,0.408,0.408,0.408h0.043c0.858-0.107,2.863-0.386,4.844-0.386
					c1.904,0,2.489,0.684,2.489,1.924c0,1.609-3.836,2.497-5.708,3.271c-1.864,0.77-2.524,2.247-2.524,3.744
					c0,2.359,1.896,4.074,5.882,4.074c2.042,0,3.911-0.389,4.641-0.564c0.215-0.042,0.384-0.192,0.384-0.406v-1.587
					c0-0.211-0.146-0.384-0.363-0.384h-0.043c-1.416,0.127-2.882,0.389-4.743,0.389c-1.59,0-2.777-0.558-2.777-1.522
					c0-0.705,0.805-1.353,1.758-1.731c0.953-0.373,2.197-0.86,3.623-1.434c1.805-0.73,2.975-1.792,2.975-3.85
					C-111.256,179.848-112.605,177.531-116.892,177.531"/>
				<path id="path2810" fill="#86888B" d="M-125.071,177.714h-2.617c-0.236,0-0.32,0.217-0.425,0.428l-3.09,5.196h-0.478
					c-0.554,0-2.288,0.063-2.782,0.088v-5.284c0-0.234-0.17-0.428-0.405-0.428h-2.14c-0.236,0-0.429,0.194-0.429,0.428v14.043
					c0,0.431,0.254,0.581,0.682,0.645c1.113,0.169,3.514,0.276,5.074,0.276c3.305,0,6.349-1.18,6.349-4.843v-0.194
					c0-2.269-1.136-3.512-2.892-4.192l3.366-5.735c0.043-0.065,0.043-0.126,0.043-0.173
					C-124.815,177.822-124.901,177.714-125.071,177.714 M-128.286,188.262c0,1.607-1.249,2.294-3.395,2.294
					c-0.447,0-2.396-0.044-2.782-0.085v-4.648c0.348-0.02,2.424-0.065,2.782-0.065c2.214,0,3.395,0.426,3.395,2.311V188.262z"/>
				<path id="path2808" fill="#86888B" d="M-154.172,190.451h-4.275v-12.311c0-0.234-0.196-0.428-0.433-0.428h-2.122
					c-0.234,0-0.428,0.194-0.428,0.428v12.311h-4.278c-0.233,0-0.426,0.146-0.426,0.382v1.695c0,0.237,0.194,0.406,0.426,0.406
					h11.535c0.231,0,0.426-0.169,0.426-0.406v-1.695C-153.745,190.597-153.941,190.451-154.172,190.451"/>
				<path id="path2806" fill="#86888B" d="M-174.685,177.541c-3.448,0-6.416,1.5-6.416,6.067v8.919c0,0.237,0.195,0.406,0.429,0.406
					h2.117c0.239,0,0.429-0.169,0.429-0.406v-8.919c0-2.444,1.13-3.603,3.441-3.603c2.315,0,3.443,1.159,3.443,3.603v8.919
					c0,0.237,0.194,0.406,0.428,0.406h2.122c0.236,0,0.431-0.169,0.431-0.406v-8.919
					C-168.262,179.042-171.232,177.541-174.685,177.541"/>
				<path id="path2804" fill="#86888B" d="M-191.85,181.934c0-1.798,0.069-1.846,1.688-1.846h5.427c0.236,0,0.428-0.192,0.428-0.428
					v-1.369c0-0.302-0.108-0.409-0.428-0.451c-0.687-0.108-2.082-0.3-4.631-0.3c-3.557,0-5.442-0.023-5.442,4.393v6.782
					c0,4.413,1.886,4.389,5.442,4.389c2.549,0,3.944-0.192,4.631-0.299c0.32-0.04,0.428-0.15,0.428-0.451v-1.368
					c0-0.234-0.192-0.43-0.428-0.43h-5.427c-1.619,0-1.688-0.05-1.688-1.84v-1.967h6.858c0.236,0,0.428-0.194,0.428-0.426v-1.547
					c0-0.234-0.192-0.426-0.428-0.426h-6.858V181.934z"/>
				<path id="path2800" fill="#86888B" d="M-197.82,177.714h-2.617c-0.234,0-0.322,0.217-0.428,0.428l-3.087,5.196h-0.474
					c-0.56,0-2.292,0.063-2.785,0.088v-5.284c0-0.234-0.173-0.428-0.409-0.428h-2.143c-0.234,0-0.426,0.194-0.426,0.428v14.043
					c0,0.431,0.254,0.581,0.686,0.645c1.115,0.169,3.511,0.276,5.078,0.276c3.298,0,6.347-1.18,6.347-4.843v-0.194
					c0-2.269-1.136-3.512-2.893-4.192l3.363-5.735c0.044-0.065,0.044-0.126,0.044-0.173
					C-197.565,177.822-197.651,177.714-197.82,177.714 M-201.036,188.262c0,1.607-1.247,2.294-3.39,2.294
					c-0.451,0-2.402-0.044-2.785-0.085v-4.648c0.341-0.02,2.416-0.065,2.785-0.065c2.204,0,3.39,0.426,3.39,2.311V188.262z"/>
			</g>
		</g>
	</g>
</g>
<g id="orange" transform="matrix(0.9582344,0,0,0.9582344,-7.6719553,-36.006641)">
	<g>
		<g transform="matrix(1.25,0,0,-1.25,-130.80766,702.77718)">
			<g>
				<g>
					<g>
						<path fill="#FF7F00" d="M165.484,425.113c-0.612-0.329-0.831-1.098-0.51-1.705l0,0c0.328-0.625,1.103-0.847,1.716-0.521l0,0
							c0.613,0.338,0.837,1.101,0.51,1.717l0,0c-0.225,0.422-0.663,0.665-1.115,0.665l0,0
							C165.882,425.27,165.675,425.218,165.484,425.113 M168.878,425.062c-0.551-0.292-0.744-0.969-0.455-1.518l0,0
							c0.288-0.543,0.97-0.748,1.512-0.451l0,0c0.555,0.3,0.75,0.974,0.461,1.521l0,0c-0.196,0.372-0.581,0.587-0.981,0.587l0,0
							C169.233,425.2,169.05,425.157,168.878,425.062 M162.266,424.157c-0.693-0.375-0.957-1.243-0.577-1.934l0,0
							c0.377-0.694,1.242-0.963,1.944-0.587l0,0c0.695,0.378,0.948,1.246,0.576,1.937l0,0c-0.257,0.483-0.752,0.757-1.262,0.757l0,0
							C162.715,424.33,162.483,424.276,162.266,424.157 M172.133,424.001c-0.48-0.268-0.662-0.87-0.407-1.341l0,0
							c0.258-0.477,0.866-0.653,1.328-0.393l0,0c0.487,0.26,0.662,0.853,0.402,1.327l0,0c-0.175,0.332-0.518,0.52-0.869,0.52l0,0
							C172.43,424.113,172.276,424.076,172.133,424.001 M159.711,421.997c-0.621-0.341-0.85-1.093-0.516-1.72l0,0
							c0.334-0.607,1.09-0.835,1.703-0.505l0,0c0.624,0.329,0.853,1.101,0.52,1.708l0,0c-0.225,0.425-0.665,0.671-1.116,0.671l0,0
							C160.102,422.151,159.898,422.099,159.711,421.997 M174.934,421.983c-0.419-0.228-0.567-0.737-0.35-1.142l0,0
							c0.221-0.407,0.728-0.558,1.148-0.35l0,0c0.408,0.232,0.565,0.74,0.342,1.15l0,0c-0.156,0.284-0.443,0.442-0.743,0.445l0,0
							C175.196,422.087,175.061,422.053,174.934,421.983 M177.002,419.223c-0.325-0.188-0.462-0.625-0.272-0.96l0,0
							c0.184-0.341,0.61-0.466,0.941-0.28l0,0c0.344,0.182,0.474,0.601,0.286,0.942l0,0c-0.129,0.243-0.373,0.378-0.628,0.378l0,0
							C177.222,419.304,177.109,419.275,177.002,419.223 M157.891,419.136c-0.547-0.297-0.747-0.98-0.463-1.523l0,0
							c0.3-0.541,0.98-0.748,1.523-0.454l0,0c0.546,0.292,0.755,0.974,0.458,1.524l0,0c-0.208,0.373-0.594,0.584-0.991,0.584l0,0
							C158.241,419.266,158.058,419.223,157.891,419.136 M178.057,416.205c-0.415-0.217-0.572-0.734-0.344-1.144l0,0
							c0.213-0.407,0.733-0.557,1.126-0.347l0,0c0.415,0.237,0.574,0.752,0.355,1.154l0,0c-0.154,0.283-0.445,0.439-0.74,0.439l0,0
							C178.32,416.306,178.181,416.274,178.057,416.205 M156.996,415.821c-0.47-0.252-0.645-0.847-0.392-1.321l0,0
							c0.265-0.483,0.855-0.657,1.335-0.403l0,0c0.474,0.258,0.655,0.862,0.397,1.333l0,0c-0.179,0.33-0.511,0.514-0.861,0.514l0,0
							C157.314,415.945,157.149,415.904,156.996,415.821 M178.063,413.005c-0.48-0.263-0.649-0.853-0.403-1.337l0,0
							c0.253-0.469,0.867-0.642,1.339-0.391l0,0c0.477,0.261,0.648,0.856,0.387,1.331l0,0c-0.175,0.329-0.51,0.517-0.857,0.517l0,0
							C178.371,413.124,178.213,413.086,178.063,413.005 M157.14,412.383c-0.403-0.226-0.559-0.74-0.337-1.148l0,0
							c0.223-0.413,0.739-0.558,1.139-0.329l0,0c0.409,0.209,0.574,0.729,0.344,1.137l0,0c-0.16,0.28-0.447,0.439-0.746,0.439l0,0
							C157.405,412.482,157.269,412.45,157.14,412.383 M177.043,409.95c-0.548-0.292-0.747-0.987-0.459-1.533l0,0
							c0.301-0.535,0.98-0.744,1.513-0.45l0,0c0.559,0.3,0.752,0.977,0.469,1.525l0,0c-0.207,0.373-0.592,0.589-0.993,0.589l0,0
							C177.395,410.083,177.211,410.04,177.043,409.95 M158.317,409.12c-0.346-0.176-0.468-0.604-0.283-0.954l0,0
							c0.182-0.335,0.603-0.468,0.954-0.286l0,0c0.337,0.191,0.465,0.619,0.278,0.96l0,0c-0.129,0.227-0.373,0.364-0.621,0.364l0,0
							C158.534,409.204,158.422,409.178,158.317,409.12 M175.09,407.331c-0.617-0.333-0.841-1.098-0.51-1.711l0,0
							c0.324-0.613,1.091-0.841,1.711-0.505l0,0c0.613,0.32,0.84,1.097,0.506,1.705l0,0c-0.232,0.422-0.667,0.668-1.113,0.668l0,0
							C175.485,407.487,175.281,407.434,175.09,407.331 M160.267,406.602c-0.411-0.214-0.562-0.731-0.344-1.133l0,0
							c0.218-0.413,0.728-0.567,1.139-0.338l0,0c0.405,0.211,0.561,0.723,0.343,1.137l0,0c-0.15,0.277-0.442,0.434-0.743,0.434l0,0
							C160.528,406.701,160.394,406.67,160.267,406.602 M172.357,405.461c-0.691-0.371-0.958-1.241-0.572-1.938l0,0
							c0.377-0.694,1.244-0.945,1.942-0.581l0,0c0.691,0.385,0.948,1.259,0.577,1.934l0,0c-0.26,0.484-0.752,0.761-1.262,0.761l0,0
							C172.81,405.637,172.578,405.582,172.357,405.461 M162.937,404.839c-0.487-0.263-0.66-0.853-0.395-1.326l0,0
							c0.246-0.481,0.847-0.662,1.321-0.404l0,0c0.48,0.266,0.659,0.87,0.402,1.337l0,0c-0.181,0.324-0.519,0.512-0.866,0.512l0,0
							C163.244,404.958,163.085,404.92,162.937,404.839 M169.304,404.212c-0.618-0.327-0.831-1.092-0.497-1.711l0,0
							c0.321-0.61,1.084-0.853,1.699-0.509l0,0c0.618,0.324,0.84,1.096,0.512,1.708l0,0c-0.231,0.422-0.663,0.662-1.114,0.662l0,0
							C169.702,404.362,169.497,404.313,169.304,404.212 M166.047,404.015c-0.546-0.295-0.741-0.98-0.454-1.521l0,0
							c0.301-0.552,0.98-0.752,1.525-0.46l0,0c0.554,0.286,0.753,0.974,0.459,1.524l0,0c-0.199,0.378-0.59,0.584-0.993,0.584l0,0
							C166.4,404.142,166.217,404.101,166.047,404.015"/>
					</g>
				</g>
			</g>
		</g>
		<g transform="matrix(1.25,0,0,-1.25,-130.80766,702.77718)">
			<g>
				<g>
					<g>
						<path fill="#FF7F00" d="M166.042,428.56c-0.252-0.85,0.233-1.735,1.083-1.992l0,0c0.852-0.248,1.739,0.243,1.992,1.084l0,0
							c0.254,0.85-0.233,1.746-1.081,1.995l0,0c-0.154,0.046-0.309,0.066-0.459,0.066l0,0
							C166.879,429.713,166.25,429.259,166.042,428.56 M170.338,428.042c-0.286-0.98,0.257-1.997,1.247-2.287l0,0
							c0.975-0.289,1.997,0.266,2.281,1.237l0,0c0.297,0.986-0.262,2.009-1.244,2.301l0,0c-0.174,0.049-0.345,0.072-0.518,0.072l0,0
							C171.305,429.366,170.57,428.846,170.338,428.042 M161.729,427.669c-0.218-0.755,0.217-1.546,0.973-1.769l0,0
							c0.752-0.223,1.55,0.206,1.768,0.962l0,0c0.215,0.752-0.218,1.547-0.967,1.769l0,0c-0.133,0.038-0.266,0.058-0.397,0.058l0,0
							C162.485,428.69,161.917,428.285,161.729,427.669 M174.685,426.018c-0.254-0.85,0.237-1.74,1.087-1.992l0,0
							c0.851-0.249,1.74,0.248,1.99,1.093l0,0c0.254,0.846-0.233,1.739-1.082,1.991l0,0c-0.15,0.044-0.304,0.063-0.45,0.063l0,0
							C175.529,427.175,174.891,426.718,174.685,426.018 M158.024,425.394c-0.175-0.598,0.16-1.217,0.76-1.394l0,0
							c0.591-0.173,1.217,0.171,1.395,0.764l0,0c0.17,0.59-0.172,1.214-0.764,1.393l0,0c-0.108,0.032-0.213,0.047-0.317,0.047l0,0
							C158.61,426.203,158.167,425.883,158.024,425.394 M178.165,422.842c-0.223-0.763,0.214-1.549,0.966-1.769l0,0
							c0.757-0.223,1.543,0.214,1.769,0.969l0,0c0.227,0.748-0.205,1.54-0.967,1.763l0,0c-0.133,0.041-0.267,0.058-0.399,0.058l0,0
							C178.921,423.862,178.353,423.46,178.165,422.842 M155.091,422.026c-0.143-0.477,0.138-0.985,0.618-1.124l0,0
							c0.48-0.139,0.981,0.133,1.126,0.612l0,0c0.15,0.48-0.135,0.983-0.612,1.13l0,0c-0.084,0.023-0.166,0.035-0.248,0.035l0,0
							C155.577,422.68,155.209,422.426,155.091,422.026 M180.641,418.758c-0.182-0.605,0.169-1.226,0.76-1.399l0,0
							c0.598-0.176,1.217,0.165,1.392,0.764l0,0c0.177,0.596-0.159,1.214-0.757,1.388l0,0c-0.104,0.031-0.214,0.046-0.321,0.046l0,0
							C181.23,419.556,180.78,419.24,180.641,418.758 M153.365,417.841c-0.106-0.364,0.096-0.743,0.457-0.85l0,0
							c0.363-0.104,0.739,0.107,0.841,0.468l0,0c0.107,0.355-0.097,0.734-0.461,0.838l0,0c-0.062,0.02-0.127,0.029-0.19,0.029l0,0
							C153.719,418.327,153.449,418.136,153.365,417.841 M181.692,414.21c-0.145-0.473,0.13-0.985,0.617-1.123l0,0
							c0.481-0.145,0.984,0.132,1.129,0.618l0,0c0.139,0.474-0.131,0.98-0.616,1.124l0,0c-0.086,0.027-0.169,0.038-0.254,0.038l0,0
							C182.172,414.867,181.802,414.606,181.692,414.21 M152.552,413.383c-0.148-0.476,0.14-0.977,0.618-1.121l0,0
							c0.479-0.144,0.981,0.128,1.128,0.613l0,0c0.143,0.477-0.132,0.982-0.613,1.13l0,0c-0.084,0.024-0.169,0.035-0.252,0.035l0,0
							C153.04,414.04,152.676,413.777,152.552,413.383 M181.323,409.626c-0.099-0.355,0.1-0.74,0.454-0.841l0,0
							c0.367-0.107,0.738,0.095,0.844,0.462l0,0c0.11,0.355-0.095,0.734-0.457,0.841l0,0c-0.062,0.016-0.125,0.026-0.184,0.026l0,0
							C181.686,410.114,181.41,409.921,181.323,409.626 M153.202,408.961c-0.168-0.593,0.153-1.22,0.758-1.393l0,0
							c0.588-0.179,1.214,0.168,1.389,0.766l0,0c0.175,0.593-0.168,1.22-0.757,1.382l0,0c-0.11,0.031-0.221,0.049-0.331,0.049l0,0
							C153.776,409.765,153.335,409.447,153.202,408.961 M179.155,405.574c-0.142-0.483,0.135-0.991,0.609-1.13l0,0
							c0.49-0.14,0.996,0.135,1.136,0.616l0,0c0.139,0.477-0.137,0.991-0.616,1.13l0,0c-0.084,0.026-0.17,0.038-0.253,0.038l0,0
							C179.637,406.226,179.271,405.97,179.155,405.574 M155.087,405.047c-0.224-0.755,0.207-1.544,0.964-1.772l0,0
							c0.765-0.223,1.549,0.211,1.778,0.964l0,0c0.22,0.757-0.219,1.554-0.973,1.777l0,0c-0.136,0.041-0.268,0.06-0.402,0.06l0,0
							C155.839,406.076,155.276,405.668,155.087,405.047 M175.811,402.321c-0.171-0.589,0.175-1.216,0.766-1.393l0,0
							c0.593-0.176,1.214,0.168,1.386,0.755l0,0c0.183,0.601-0.159,1.222-0.751,1.395l0,0c-0.108,0.036-0.214,0.049-0.321,0.049l0,0
							C176.403,403.127,175.955,402.807,175.811,402.321 M158.232,401.96c-0.247-0.841,0.23-1.734,1.084-1.983l0,0
							c0.853-0.246,1.74,0.241,1.993,1.084l0,0c0.245,0.845-0.24,1.743-1.094,1.993l0,0c-0.15,0.042-0.302,0.067-0.451,0.067l0,0
							C159.068,403.12,158.437,402.662,158.232,401.96 M162.12,400.087c-0.28-0.988,0.265-2.003,1.249-2.296l0,0
							c0.979-0.28,2.008,0.28,2.287,1.249l0,0c0.288,0.98-0.267,2.007-1.25,2.296l0,0c-0.174,0.049-0.347,0.072-0.519,0.072l0,0
							C163.088,401.408,162.354,400.89,162.12,400.087 M171.52,400.221c-0.221-0.758,0.217-1.547,0.967-1.77l0,0
							c0.763-0.223,1.55,0.208,1.774,0.969l0,0c0.221,0.748-0.206,1.543-0.967,1.766l0,0c-0.135,0.038-0.272,0.058-0.407,0.058l0,0
							C172.27,401.243,171.699,400.838,171.52,400.221 M166.87,399.422c-0.247-0.841,0.242-1.728,1.088-1.98l0,0
							c0.854-0.257,1.746,0.231,1.989,1.078l0,0c0.246,0.853-0.23,1.743-1.083,1.993l0,0c-0.153,0.042-0.306,0.065-0.455,0.065l0,0
							C167.714,400.578,167.077,400.124,166.87,399.422"/>
					</g>
				</g>
			</g>
		</g>
		<g transform="matrix(1.25,0,0,-1.25,-130.80766,702.77718)">
			<g>
				<g>
					<g>
						<path fill="#FF7F00" d="M169.124,434.066c-0.689-0.737-0.656-1.894,0.082-2.584l0,0c0.733-0.697,1.893-0.662,2.578,0.072l0,0
							c0.694,0.74,0.655,1.891-0.077,2.587l0,0c-0.354,0.333-0.803,0.494-1.251,0.494l0,0
							C169.971,434.636,169.483,434.445,169.124,434.066 M163.337,433.615c-0.545-0.581-0.52-1.489,0.062-2.038l0,0
							c0.572-0.541,1.489-0.512,2.035,0.063l0,0c0.538,0.578,0.513,1.492-0.065,2.038l0,0c-0.278,0.257-0.632,0.387-0.984,0.387l0,0
							C164,434.066,163.62,433.916,163.337,433.615 M174.795,432.523c-0.779-0.827-0.744-2.122,0.082-2.908l0,0
							c0.826-0.777,2.137-0.737,2.91,0.084l0,0c0.775,0.827,0.743,2.13-0.085,2.908l0,0c-0.402,0.376-0.907,0.564-1.413,0.564l0,0
							C175.743,433.17,175.2,432.95,174.795,432.523 M157.811,431.381c-0.442-0.468-0.419-1.197,0.048-1.645l0,0
							c0.471-0.439,1.208-0.422,1.649,0.049l0,0c0.442,0.466,0.415,1.206-0.048,1.645l0,0c-0.228,0.211-0.514,0.315-0.802,0.315l0,0
							C158.347,431.745,158.038,431.623,157.811,431.381 M179.593,429.305c-0.899-0.948-0.863-2.442,0.093-3.339l0,0
							c0.949-0.902,2.45-0.853,3.342,0.09l0,0c0.897,0.96,0.853,2.454-0.097,3.353l0,0c-0.459,0.431-1.04,0.642-1.618,0.642l0,0
							C180.683,430.051,180.057,429.8,179.593,429.305 M153.223,427.461c-0.332-0.353-0.318-0.902,0.033-1.231l0,0
							c0.355-0.333,0.902-0.312,1.227,0.035l0,0c0.331,0.353,0.316,0.899-0.032,1.228l0,0c-0.172,0.156-0.388,0.237-0.601,0.237l0,0
							C153.62,427.73,153.394,427.638,153.223,427.461 M183.532,424.287c-0.778-0.823-0.742-2.127,0.088-2.905l0,0
							c0.829-0.784,2.132-0.737,2.903,0.087l0,0c0.785,0.827,0.747,2.122-0.087,2.911l0,0c-0.395,0.373-0.896,0.555-1.401,0.555l0,0
							C184.487,424.935,183.94,424.718,183.532,424.287 M149.582,422.645c-0.447-0.468-0.421-1.202,0.053-1.648l0,0
							c0.462-0.44,1.201-0.419,1.645,0.043l0,0c0.435,0.469,0.418,1.206-0.052,1.645l0,0c-0.224,0.217-0.51,0.324-0.795,0.324l0,0
							C150.122,423.009,149.815,422.885,149.582,422.645 M185.746,418.41c-0.695-0.734-0.66-1.893,0.079-2.585l0,0
							c0.734-0.697,1.895-0.656,2.583,0.078l0,0c0.698,0.731,0.66,1.89-0.077,2.584l0,0c-0.354,0.333-0.805,0.497-1.256,0.497l0,0
							C186.591,418.986,186.106,418.792,185.746,418.41 M147.682,416.991c-0.538-0.581-0.522-1.483,0.061-2.029l0,0
							c0.576-0.546,1.49-0.518,2.038,0.058l0,0c0.545,0.572,0.512,1.494-0.061,2.035l0,0c-0.282,0.266-0.636,0.393-0.991,0.393l0,0
							C148.345,417.448,147.966,417.295,147.682,416.991 M186.207,412.069c-0.543-0.579-0.51-1.489,0.063-2.028l0,0
							c0.586-0.553,1.488-0.522,2.035,0.06l0,0c0.545,0.576,0.523,1.483-0.065,2.033l0,0c-0.276,0.26-0.628,0.39-0.982,0.39l0,0
							C186.874,412.522,186.49,412.369,186.207,412.069 M147.577,411.19c-0.688-0.729-0.655-1.893,0.081-2.585l0,0
							c0.738-0.696,1.893-0.662,2.584,0.075l0,0c0.692,0.729,0.66,1.894-0.078,2.59l0,0c-0.35,0.333-0.798,0.497-1.245,0.497l0,0
							C148.428,411.769,147.941,411.571,147.577,411.19 M184.711,406.05c-0.444-0.468-0.421-1.212,0.046-1.657l0,0
							c0.474-0.439,1.213-0.416,1.652,0.059l0,0c0.438,0.465,0.42,1.205-0.047,1.648l0,0c-0.226,0.211-0.514,0.316-0.802,0.316l0,0
							C185.25,406.415,184.941,406.29,184.711,406.05 M149.466,405.62c-0.781-0.819-0.753-2.122,0.078-2.908l0,0
							c0.832-0.775,2.136-0.731,2.909,0.09l0,0c0.776,0.823,0.737,2.133-0.085,2.908l0,0c-0.396,0.375-0.899,0.56-1.401,0.56l0,0
							C150.417,406.27,149.869,406.05,149.466,405.62 M152.957,401.033c-0.893-0.964-0.851-2.443,0.103-3.348l0,0
							c0.949-0.896,2.448-0.853,3.339,0.101l0,0c0.897,0.951,0.85,2.439-0.097,3.348l0,0c-0.459,0.427-1.044,0.641-1.624,0.641l0,0
							C154.049,401.775,153.422,401.526,152.957,401.033 M181.5,400.824c-0.326-0.35-0.311-0.902,0.038-1.232l0,0
							c0.353-0.324,0.898-0.309,1.224,0.046l0,0c0.334,0.344,0.32,0.896-0.036,1.22l0,0c-0.163,0.159-0.379,0.24-0.594,0.24l0,0
							C181.9,401.098,181.669,401.006,181.5,400.824 M158.201,397.384c-0.776-0.815-0.739-2.119,0.093-2.902l0,0
							c0.824-0.78,2.13-0.737,2.901,0.086l0,0c0.776,0.83,0.748,2.128-0.086,2.908l0,0c-0.397,0.373-0.904,0.555-1.409,0.555l0,0
							C159.15,398.032,158.605,397.815,158.201,397.384 M176.479,397.307c-0.441-0.469-0.421-1.208,0.048-1.645l0,0
							c0.474-0.442,1.211-0.422,1.651,0.05l0,0c0.44,0.462,0.419,1.199-0.052,1.642l0,0c-0.225,0.216-0.512,0.32-0.801,0.32l0,0
							C177.017,397.673,176.707,397.551,176.479,397.307 M164.198,395.538c-0.691-0.732-0.659-1.896,0.078-2.582l0,0
							c0.745-0.697,1.894-0.661,2.585,0.073l0,0c0.695,0.731,0.666,1.893-0.073,2.584l0,0c-0.354,0.333-0.803,0.497-1.254,0.497l0,0
							C165.045,396.11,164.558,395.915,164.198,395.538 M170.556,395.448c-0.542-0.572-0.513-1.489,0.063-2.035l0,0
							c0.581-0.547,1.49-0.509,2.035,0.067l0,0c0.542,0.572,0.523,1.485-0.058,2.032l0,0c-0.283,0.26-0.636,0.391-0.991,0.391l0,0
							C171.222,395.901,170.84,395.748,170.556,395.448"/>
					</g>
				</g>
			</g>
		</g>
		<g transform="matrix(1.25,0,0,-1.25,-130.80766,702.77718)">
			<g>
				<g>
					<g>
						<path fill="#FF7F00" d="M170.657,440.524c-0.858-0.17-1.415-0.998-1.243-1.858l0,0c0.172-0.856,1.005-1.41,1.864-1.237l0,0
							c0.855,0.17,1.408,1,1.236,1.856l0,0c-0.15,0.755-0.807,1.272-1.542,1.272l0,0
							C170.868,440.556,170.764,440.547,170.657,440.524 M164.103,440.09c-0.672-0.098-1.14-0.72-1.042-1.399l0,0
							c0.099-0.677,0.728-1.139,1.402-1.041l0,0c0.677,0.098,1.146,0.722,1.045,1.402l0,0c-0.088,0.612-0.617,1.052-1.22,1.052l0,0
							C164.224,440.104,164.166,440.102,164.103,440.09 M176.972,439.188c-1.023-0.26-1.646-1.298-1.382-2.33l0,0
							c0.262-1.023,1.307-1.645,2.331-1.382l0,0c1.022,0.264,1.643,1.31,1.382,2.331l0,0c-0.224,0.87-1,1.442-1.853,1.442l0,0
							C177.29,439.249,177.131,439.228,176.972,439.188 M157.399,438.101c-0.583-0.249-0.854-0.922-0.601-1.512l0,0
							c0.252-0.581,0.931-0.847,1.513-0.598l0,0c0.583,0.254,0.854,0.927,0.601,1.512l0,0c-0.188,0.436-0.61,0.697-1.053,0.697l0,0
							C157.704,438.199,157.548,438.168,157.399,438.101 M182.568,436.352c-1.255-0.39-1.964-1.726-1.568-2.989l0,0
							c0.392-1.258,1.736-1.96,2.989-1.566l0,0c1.26,0.393,1.962,1.734,1.568,2.989l0,0c-0.32,1.026-1.259,1.68-2.272,1.68l0,0
							C183.048,436.466,182.808,436.43,182.568,436.352 M151.349,434.592c-0.532-0.425-0.626-1.197-0.204-1.734l0,0
							c0.425-0.535,1.204-0.625,1.736-0.205l0,0c0.535,0.428,0.63,1.199,0.207,1.737l0,0c-0.244,0.309-0.604,0.468-0.967,0.468l0,0
							C151.851,434.858,151.58,434.771,151.349,434.592 M187.165,431.896c-1.363-0.506-2.065-2.012-1.556-3.385l0,0
							c0.504-1.364,2.02-2.061,3.38-1.558l0,0c1.365,0.506,2.063,2.024,1.558,3.388l0,0c-0.393,1.064-1.401,1.717-2.465,1.717l0,0
							C187.777,432.057,187.466,432.005,187.165,431.896 M146.543,430.123c-0.715-0.506-0.889-1.483-0.376-2.203l0,0
							c0.502-0.711,1.49-0.879,2.201-0.376l0,0c0.71,0.506,0.882,1.492,0.376,2.203l0,0c-0.309,0.437-0.795,0.671-1.288,0.671l0,0
							C147.142,430.418,146.819,430.322,146.543,430.123 M190.365,426.313c-1.457-0.63-2.127-2.303-1.5-3.766l0,0
							c0.629-1.454,2.313-2.124,3.766-1.497l0,0c1.449,0.627,2.125,2.315,1.496,3.766l0,0c-0.47,1.087-1.525,1.732-2.631,1.732l0,0
							C191.118,426.548,190.734,426.472,190.365,426.313 M143.177,424.617c-0.89-0.567-1.163-1.743-0.59-2.642l0,0
							c0.564-0.893,1.748-1.162,2.639-0.596l0,0c0.895,0.564,1.159,1.752,0.594,2.648l0,0c-0.366,0.575-0.984,0.887-1.618,0.887l0,0
							C143.852,424.914,143.497,424.819,143.177,424.617 M192.157,419.613c-1.302-0.645-1.834-2.226-1.19-3.524l0,0
							c0.65-1.315,2.224-1.839,3.53-1.194l0,0c1.3,0.641,1.839,2.217,1.19,3.527l0,0c-0.461,0.925-1.397,1.463-2.366,1.463l0,0
							C192.928,419.884,192.531,419.798,192.157,419.613 M141.395,418.595c-1.15-0.641-1.56-2.096-0.914-3.249l0,0
							c0.648-1.145,2.102-1.558,3.253-0.911l0,0c1.15,0.645,1.558,2.102,0.911,3.252l0,0c-0.436,0.781-1.246,1.217-2.077,1.217l0,0
							C142.17,418.905,141.767,418.807,141.395,418.595 M192.246,412.649c-1.146-0.638-1.559-2.099-0.91-3.251l0,0
							c0.647-1.154,2.103-1.556,3.247-0.908l0,0c1.154,0.645,1.563,2.096,0.915,3.247l0,0c-0.439,0.781-1.249,1.223-2.081,1.223l0,0
							C193.02,412.959,192.619,412.858,192.246,412.649 M141.484,412.193c-1.295-0.641-1.839-2.217-1.19-3.525l0,0
							c0.647-1.304,2.23-1.839,3.532-1.192l0,0c1.302,0.644,1.837,2.223,1.19,3.527l0,0c-0.458,0.933-1.388,1.468-2.354,1.468l0,0
							C142.265,412.47,141.864,412.38,141.484,412.193 M143.354,406.035c-1.451-0.621-2.129-2.304-1.499-3.763l0,0
							c0.626-1.453,2.318-2.121,3.766-1.5l0,0c1.449,0.63,2.117,2.315,1.49,3.773l0,0c-0.467,1.081-1.521,1.728-2.625,1.728l0,0
							C144.108,406.273,143.724,406.195,143.354,406.035 M190.758,405.709c-0.895-0.57-1.161-1.749-0.596-2.642l0,0
							c0.569-0.896,1.751-1.16,2.644-0.596l0,0c0.893,0.566,1.163,1.743,0.594,2.642l0,0c-0.365,0.579-0.985,0.891-1.622,0.891l0,0
							C191.429,406.004,191.076,405.908,190.758,405.709 M146.991,400.133c-1.361-0.505-2.061-2.024-1.556-3.382l0,0
							c0.51-1.376,2.025-2.061,3.383-1.554l0,0c1.366,0.505,2.065,2.011,1.556,3.384l0,0c-0.393,1.062-1.399,1.718-2.47,1.718l0,0
							C147.603,400.297,147.293,400.243,146.991,400.133 M187.615,399.54c-0.715-0.502-0.882-1.491-0.377-2.202l0,0
							c0.507-0.716,1.493-0.882,2.209-0.378l0,0c0.71,0.502,0.879,1.489,0.372,2.209l0,0c-0.309,0.434-0.797,0.664-1.291,0.664l0,0
							C188.21,399.833,187.892,399.74,187.615,399.54 M151.991,395.291c-1.258-0.391-1.958-1.728-1.564-2.989l0,0
							c0.393-1.269,1.728-1.962,2.987-1.567l0,0c1.258,0.391,1.965,1.724,1.57,2.984l0,0c-0.32,1.026-1.263,1.68-2.281,1.68l0,0
							C152.469,395.399,152.229,395.363,151.991,395.291 M183.098,394.433c-0.53-0.428-0.625-1.203-0.201-1.735l0,0
							c0.424-0.541,1.203-0.624,1.736-0.205l0,0c0.536,0.425,0.627,1.199,0.205,1.737l0,0c-0.244,0.307-0.606,0.469-0.971,0.469l0,0
							C183.599,394.699,183.329,394.611,183.098,394.433 M158.066,391.609c-1.022-0.264-1.64-1.301-1.382-2.331l0,0
							c0.263-1.026,1.304-1.642,2.33-1.382l0,0c1.026,0.267,1.646,1.298,1.383,2.33l0,0c-0.218,0.864-1.003,1.443-1.857,1.443l0,0
							C158.384,391.669,158.226,391.649,158.066,391.609 M177.674,391.094c-0.583-0.251-0.854-0.927-0.601-1.508l0,0
							c0.253-0.589,0.929-0.853,1.512-0.604l0,0c0.583,0.251,0.856,0.928,0.604,1.512l0,0c-0.188,0.434-0.614,0.697-1.058,0.697l0,0
							C177.978,391.19,177.823,391.158,177.674,391.094 M164.706,389.663c-0.856-0.174-1.41-1.009-1.24-1.862l0,0
							c0.172-0.861,1.008-1.413,1.865-1.246l0,0c0.852,0.177,1.409,1.006,1.236,1.868l0,0c-0.15,0.752-0.812,1.269-1.551,1.269l0,0
							C164.913,389.692,164.811,389.684,164.706,389.663 M171.52,389.437c-0.672-0.101-1.14-0.728-1.042-1.402l0,0
							c0.1-0.68,0.73-1.142,1.399-1.041l0,0c0.678,0.099,1.148,0.722,1.048,1.399l0,0c-0.088,0.615-0.617,1.057-1.226,1.057l0,0
							C171.637,389.452,171.579,389.446,171.52,389.437"/>
					</g>
				</g>
			</g>
		</g>
		<g transform="matrix(1.25,0,0,-1.25,-130.80766,702.77718)">
			<g>
				<g>
					<g>
						<path fill="#FF7F00" d="M166.516,446.331c0-0.815,0.664-1.474,1.473-1.474l0,0c0.816,0,1.477,0.659,1.477,1.474l0,0
							c0,0.815-0.66,1.471-1.477,1.471l0,0C167.179,447.802,166.516,447.146,166.516,446.331 M174.947,445.623
							c-0.225-0.847,0.278-1.711,1.12-1.939l0,0c0.847-0.226,1.715,0.274,1.942,1.121l0,0c0.224,0.844-0.28,1.709-1.124,1.934l0,0
							c-0.138,0.038-0.276,0.055-0.412,0.055l0,0C175.776,446.794,175.137,446.331,174.947,445.623 M159.097,446.739
							c-0.843-0.225-1.349-1.087-1.123-1.934l0,0c0.228-0.847,1.1-1.344,1.94-1.121l0,0c0.847,0.228,1.347,1.092,1.123,1.939l0,0
							c-0.189,0.708-0.828,1.17-1.526,1.17l0,0C159.373,446.794,159.236,446.776,159.097,446.739 M182.407,442.368
							c-0.234-1.096,0.464-2.171,1.561-2.401l0,0c1.093-0.235,2.168,0.462,2.399,1.555l0,0c0.237,1.101-0.465,2.168-1.558,2.401l0,0
							c-0.143,0.029-0.289,0.044-0.428,0.044l0,0C183.445,443.967,182.609,443.322,182.407,442.368 M151.174,443.923
							c-1.093-0.234-1.795-1.301-1.563-2.401l0,0c0.234-1.093,1.311-1.79,2.404-1.555l0,0c1.094,0.231,1.794,1.307,1.561,2.401l0,0
							c-0.204,0.954-1.04,1.599-1.975,1.599l0,0C151.462,443.967,151.319,443.955,151.174,443.923 M144.423,439.15
							c-1.338-0.214-2.249-1.459-2.038-2.803l0,0c0.214-1.338,1.47-2.258,2.805-2.044l0,0c1.339,0.214,2.253,1.471,2.042,2.812l0,0
							c-0.192,1.211-1.233,2.067-2.419,2.067l0,0C144.686,439.182,144.558,439.171,144.423,439.15 M188.75,437.11
							c-0.211-1.338,0.703-2.596,2.041-2.81l0,0c1.334-0.211,2.596,0.706,2.805,2.044l0,0c0.214,1.344-0.702,2.593-2.036,2.804l0,0
							c-0.13,0.023-0.259,0.031-0.388,0.031l0,0C189.987,439.18,188.945,438.324,188.75,437.11 M193.341,430.256
							c-0.177-1.676,1.046-3.185,2.721-3.359l0,0c1.681-0.179,3.184,1.04,3.362,2.72l0,0c0.176,1.688-1.042,3.185-2.72,3.362l0,0
							c-0.11,0.011-0.217,0.017-0.324,0.017l0,0C194.837,432.996,193.504,431.835,193.341,430.256 M139.279,432.979
							c-1.684-0.177-2.901-1.674-2.721-3.362l0,0c0.175-1.68,1.676-2.899,3.357-2.72l0,0c1.678,0.176,2.902,1.682,2.723,3.359l0,0
							c-0.163,1.578-1.49,2.74-3.03,2.74l0,0C139.499,432.996,139.388,432.99,139.279,432.979 M196.302,422.209
							c-0.098-1.858,1.333-3.446,3.185-3.544l0,0c1.861-0.098,3.452,1.329,3.55,3.194l0,0c0.098,1.868-1.336,3.443-3.19,3.538l0,0
							c-0.062,0.006-0.124,0.006-0.185,0.006l0,0C197.883,425.403,196.394,424.018,196.302,422.209 M136.133,425.397
							c-1.852-0.095-3.288-1.67-3.188-3.538l0,0c0.098-1.865,1.691-3.292,3.548-3.194l0,0c1.86,0.098,3.286,1.685,3.19,3.544l0,0
							c-0.093,1.81-1.581,3.194-3.362,3.194l0,0C136.257,425.403,136.196,425.403,136.133,425.397 M197.108,413.549
							c0-2.03,1.644-3.674,3.666-3.674l0,0c2.029,0,3.671,1.644,3.671,3.667l0,0c0,2.041-1.642,3.671-3.666,3.671l0,0
							C198.751,417.214,197.108,415.584,197.108,413.549 M131.535,413.543c0-2.024,1.651-3.667,3.671-3.667l0,0
							c2.02,0,3.664,1.644,3.664,3.674l0,0c0,2.035-1.644,3.665-3.664,3.665l0,0C133.186,417.214,131.535,415.584,131.535,413.543
							 M199.487,408.423c-1.852-0.095-3.283-1.685-3.185-3.541l0,0c0.096-1.874,1.682-3.284,3.544-3.191l0,0
							c1.854,0.098,3.286,1.671,3.189,3.543l0,0c-0.095,1.795-1.59,3.194-3.37,3.194l0,0
							C199.607,408.429,199.546,408.429,199.487,408.423 M132.945,405.235c-0.098-1.873,1.337-3.449,3.188-3.543l0,0
							c1.866-0.096,3.453,1.318,3.552,3.191l0,0c0.094,1.856-1.333,3.445-3.193,3.541l0,0c-0.059,0.006-0.12,0.006-0.178,0.006l0,0
							C134.534,408.429,133.038,407.03,132.945,405.235 M196.063,400.194c-1.676-0.177-2.898-1.683-2.721-3.362l0,0
							c0.175-1.688,1.686-2.896,3.362-2.721l0,0c1.679,0.176,2.898,1.671,2.721,3.36l0,0c-0.166,1.575-1.494,2.74-3.038,2.74l0,0
							C196.278,400.211,196.17,400.206,196.063,400.194 M136.558,397.467c-0.177-1.685,1.039-3.179,2.721-3.357l0,0
							c1.676-0.175,3.184,1.033,3.359,2.721l0,0c0.179,1.68-1.044,3.185-2.723,3.362l0,0c-0.107,0.011-0.216,0.017-0.324,0.017l0,0
							C138.048,400.211,136.721,399.043,136.558,397.467 M190.792,392.782c-1.338-0.21-2.253-1.464-2.041-2.806l0,0
							c0.214-1.344,1.471-2.249,2.81-2.038l0,0c1.334,0.214,2.25,1.463,2.036,2.807l0,0c-0.191,1.211-1.236,2.067-2.421,2.067l0,0
							C191.049,392.811,190.92,392.806,190.792,392.782 M142.387,390.744c-0.211-1.344,0.701-2.593,2.037-2.807l0,0
							c1.34-0.21,2.598,0.695,2.81,2.038l0,0c0.214,1.338-0.702,2.595-2.042,2.806l0,0c-0.129,0.021-0.258,0.03-0.385,0.03l0,0
							C143.623,392.811,142.579,391.953,142.387,390.744 M183.968,387.125c-1.097-0.232-1.797-1.309-1.562-2.402l0,0
							c0.234-1.099,1.308-1.795,2.404-1.56l0,0c1.092,0.231,1.792,1.303,1.558,2.405l0,0c-0.202,0.947-1.042,1.604-1.98,1.604l0,0
							C184.248,387.171,184.107,387.157,183.968,387.125 M149.613,385.564c-0.235-1.098,0.468-2.17,1.559-2.401l0,0
							c1.094-0.235,2.17,0.461,2.404,1.56l0,0c0.233,1.092-0.467,2.17-1.561,2.402l0,0c-0.14,0.032-0.282,0.046-0.419,0.046l0,0
							C150.658,387.171,149.816,386.515,149.613,385.564 M176.067,383.406c-0.844-0.228-1.345-1.096-1.121-1.94l0,0
							c0.228-0.845,1.099-1.341,1.94-1.119l0,0c0.847,0.228,1.348,1.092,1.123,1.94l0,0c-0.189,0.707-0.829,1.171-1.531,1.171l0,0
							C176.343,383.458,176.203,383.439,176.067,383.406 M157.974,382.284c-0.224-0.845,0.28-1.709,1.123-1.937l0,0
							c0.843-0.222,1.714,0.274,1.94,1.122l0,0c0.224,0.841-0.276,1.708-1.123,1.937l0,0c-0.137,0.034-0.274,0.052-0.409,0.052l0,0
							C158.808,383.458,158.165,382.994,157.974,382.284 M166.516,380.757c0-0.815,0.664-1.472,1.473-1.472l0,0
							c0.816,0,1.477,0.657,1.477,1.476l0,0c0,0.812-0.66,1.471-1.477,1.471l0,0C167.179,382.231,166.516,381.572,166.516,380.757"
							/>
					</g>
				</g>
			</g>
		</g>
	</g>
</g>
</svg>
