<?xml version="1.0" encoding="utf-8"?>
<!-- Generator: Adobe Illustrator 23.0.3, SVG Export Plug-In . SVG Version: 6.00 Build 0)  -->
<svg version="1.1"
	 id="logosvg.com" inkscape:version="0.48.1 " sodipodi:docname="AJAX.svg" xmlns:cc="http://creativecommons.org/ns#" xmlns:dc="http://purl.org/dc/elements/1.1/" xmlns:inkscape="http://www.inkscape.org/namespaces/inkscape" xmlns:rdf="http://www.w3.org/1999/02/22-rdf-syntax-ns#" xmlns:sodipodi="http://sodipodi.sourceforge.net/DTD/sodipodi-0.dtd" xmlns:svg="http://www.w3.org/2000/svg"
	 xmlns="http://www.w3.org/2000/svg" xmlns:xlink="http://www.w3.org/1999/xlink" x="0px" y="0px" viewBox="0 0 400 300"
	 style="enable-background:new 0 0 400 300;" xml:space="preserve">
<style type="text/css">
	.st0{fill:#92959B;}
	.st1{fill:#CDD0D3;}
	.st2{fill:#5B5B63;}
</style>
<path id="star_2_" class="st0" d="M358.498,127.427c1.11,3.876,1.92,7.771,2.455,11.654l-9.852-9.518l3.313-13.283
	C356.012,119.837,357.385,123.567,358.498,127.427z M326.983,150.593c1.889,3.557,4.001,6.909,6.311,10.061l0.476-13.688
	l-11.619-7.259C323.477,143.393,325.086,147.033,326.983,150.593z M342.579,155.346l2.38,13.488l12.866,4.682
	c-2.062-3.333-4.391-6.559-6.98-9.644C348.261,160.792,345.499,157.947,342.579,155.346z M374.343,177.639
	c1.094-3.761,1.924-7.653,2.495-11.646c0.555-3.978,0.822-7.936,0.803-11.835l-8.432,10.785L374.343,177.639z M386.67,139.722
	c-3.234-2.207-6.681-4.21-10.301-5.969c-3.616-1.763-7.306-3.234-11.021-4.434l7.657,11.355L386.67,139.722z"/>
<path id="star_1_" class="st1" d="M337.94,133.344c2.274-3.167,4.828-6.22,7.613-9.112c2.797-2.892,5.768-5.552,8.865-7.948
	l-3.317,13.279 M322.155,139.706c3.887-0.413,7.845-0.567,11.87-0.429c4.021,0.142,7.983,0.567,11.835,1.267l-12.083,6.421
	 M334.47,177.628c0.795-3.828,1.877-7.633,3.254-11.41c1.377-3.793,3.002-7.421,4.859-10.879l2.376,13.495 M355.654,163.03
	c3.376-1.963,6.925-3.71,10.651-5.221c3.75-1.511,7.535-2.723,11.335-3.651l-8.428,10.785 M367.001,152.986
	c-0.818-3.82-1.393-7.739-1.672-11.752c-0.279-4.029-0.268-8.003,0.02-11.914l7.657,11.355"/>
<path id="star" class="st2" d="M360.953,139.081c-3.887-0.397-7.794-1.066-11.693-2.042c-3.915-0.976-7.7-2.215-11.328-3.695
	l13.169-3.781 M345.857,140.545c-1.574,3.569-3.419,7.066-5.552,10.489c-2.133,3.423-4.489,6.634-7.011,9.624l0.48-13.688
	 M357.826,173.516c-3.706,1.216-7.546,2.199-11.512,2.896c-3.97,0.692-7.932,1.098-11.847,1.224l10.493-8.802 M374.343,177.635
	c-3.396-1.936-6.693-4.143-9.864-6.618c-3.179-2.487-6.118-5.158-8.829-7.987l13.558,1.912 M386.662,139.722
	c-2.884,2.624-6,5.079-9.329,7.322c-3.356,2.258-6.803,4.234-10.332,5.941l6.004-12.311"/>
<path id="text" d="M193.453,139.254h-2.258v21.978h2.258V139.254z M33.659,155.15c0-5.3-4.836-5.784-9.097-6.22
	c-4.403-0.445-7.657-0.929-7.657-3.911c0-1.479,0.771-2.557,2.333-3.277c1.617-0.748,3.364-0.858,5.174-0.858
	c1.393,0,3.946,0.22,5.386,1.656c0.669,0.673,1.011,1.735,1.011,2.778l2.215,0.031c0-1.617-0.515-3.242-1.531-4.261
	c-1.853-1.853-4.977-2.243-7.263-2.243c-3.148,0-6.244,0.681-8.156,2.581c-0.995,0.999-1.495,2.207-1.495,3.592
	c0,5.182,5.276,5.607,9.419,5.977c1.963,0.181,3.813,0.342,5.19,0.952c1.452,0.626,2.133,1.684,2.133,3.305
	c0,1.035-0.342,1.893-1.023,2.569c-1.605,1.605-4.938,1.782-6.158,1.782c-2.99,0-5.394-0.649-6.669-1.92
	c-0.917-0.917-1.393-2.058-1.401-3.671l-2.184,0.008c-0.004,2.172,0.633,3.773,1.912,5.052c1.696,1.708,4.714,2.565,8.487,2.565
	C26.408,161.638,33.659,161.169,33.659,155.15z M59.576,161.232h-2.483l10.104-21.978h2.093l10.1,21.978h-2.534
	c0,0-2.853-6.279-3.089-6.795H62.7C62.464,154.953,59.576,161.232,59.576,161.232z M63.66,152.336h9.167
	c-0.504-1.106-3.903-8.522-4.603-10.037C67.536,143.814,64.156,151.227,63.66,152.336z M289.034,159.08v-8.16h14.672v-2.113h-14.672
	v-7.405h15.274v-2.148c0,0-17.544,0-17.544,0v21.978h17.725v-2.152H289.034z M165.749,159.08h-13.547v-19.826h-2.29v21.978h15.836
	V159.08z M172.934,139.254h-2.29v21.978h15.805v-2.152h-13.515V139.254z M56.476,139.254H37.193v2.148h8.51v19.83h2.254v-19.83
	h8.518V139.254z M217.186,154.437h-11.068c-0.236,0.515-3.093,6.795-3.093,6.795h-2.518l10.108-21.978h2.121l10.072,21.978h-2.498
	C220.31,161.232,217.418,154.953,217.186,154.437z M216.237,152.336c-0.496-1.106-3.879-8.522-4.568-10.037
	c-0.689,1.515-4.088,8.927-4.592,10.037H216.237z M142.815,161.232h-2.495c0,0-2.884-6.28-3.12-6.795h-11.068
	c-0.232,0.515-3.085,6.795-3.085,6.795h-2.518l10.1-21.978h2.121L142.815,161.232z M136.256,152.336
	c-0.5-1.106-3.876-8.522-4.564-10.037c-0.692,1.515-4.092,8.927-4.596,10.037H136.256z M96.927,151.679h-8.904v9.553h-2.286v-21.978
	h11.221c5.111,0,7.59,1.979,7.59,6.051c0,1.833-1.007,4.064-3.474,5.166c1.893,0.7,3.077,2.274,3.12,4.446
	c0.031,3.561,0.169,4.914,0.519,5.599l0.378,0.712h-2.365l-0.142-0.142c-0.472-0.472-0.633-1.641-0.716-5.217
	C101.766,152.454,100.845,151.679,96.927,151.679z M102.226,145.231c0-2.577-1.692-3.828-5.158-3.828h-9.045v8.133h8.719
	C100.424,149.535,102.226,148.122,102.226,145.231z M249.449,139.254h-2.243v18.335c-1.412-1.712-15.911-18.335-15.911-18.335
	h-2.294v21.978h2.258v-18.339c1.409,1.708,15.911,18.343,15.911,18.343h2.278V139.254z M279.619,152.832l0.071-0.543h-2.384
	l-0.075,0.397c-0.759,4.237-4.112,6.862-8.739,6.862c-6.83,0-9.557-4.804-9.557-9.293c0-5.489,3.962-9.321,9.644-9.321
	c4.324,0,7.428,2.066,8.325,5.528l0.083,0.366h2.384l-0.138-0.586c-1.078-4.741-4.969-7.456-10.659-7.456
	c-8.074,0.004-11.992,5.957-11.992,11.485h0c0,6.948,4.832,11.422,11.914,11.422C275.094,161.693,279.092,157.239,279.619,152.832z"
	/>
</svg>
